<svg width="1300" height="640" viewBox="0 0 1300 640" fill="none" xmlns="http://www.w3.org/2000/svg">
    <g clip-path="url(#clip0_141_386)">
        <rect width="1300" height="640" rx="8" fill="#0F0D0F" />
        <rect x="4.47412" y="360.453" width="120" height="120" rx="60"
            transform="rotate(-15 4.47412 360.453)" fill="#151415" />
        <path
            d="M64.5567 417.663C63.342 416.586 64.9848 414.024 63.6555 412.599C62.889 411.776 61.896 411.402 60.8621 411.545C59.8698 411.682 58.975 412.298 58.5287 413.154C57.8236 414.503 58.0639 416.019 58.3961 416.489C58.5179 416.662 58.6426 416.684 58.7248 416.674C59.286 416.6 59.2182 415.127 59.3278 414.787C59.6312 413.85 60.7414 413.293 61.6935 413.601C63.4988 414.184 62.5956 416.15 63.0747 417.477C63.5411 418.77 64.5077 419.081 65.2625 418.938C65.9895 418.773 66.3856 418.238 66.4345 417.912C66.5525 417.134 65.5561 418.549 64.5567 417.663Z"
            fill="#534B53" />
        <path
            d="M93.4863 397.041C93.0678 397.093 92.627 397.212 92.1828 397.39C91.7165 397.044 91.2137 396.416 90.8149 395.632C90.1056 394.238 89.8515 393.159 90.6887 392.785C91.5258 392.412 92.1882 393.193 92.8975 394.587C93.3739 395.524 93.5782 396.448 93.4863 397.041Z"
            fill="#534B53" />
        <path
            d="M84.1442 400.486C84.2685 400.812 84.3715 401.147 84.4452 401.462C85.3046 401.284 86.0116 401.526 86.2395 401.738C86.3566 401.848 86.3468 401.942 86.3311 401.989C86.2801 402.149 86.0867 402.178 85.6816 402.239C85.3278 402.293 84.9489 402.358 84.5692 402.479C84.5319 403.176 83.9278 403.402 83.3649 403.045C83.0854 403.219 82.5897 403.761 82.3004 403.394C82.2437 403.188 82.3788 402.831 82.6979 402.463C82.2957 402.026 81.9716 401.53 81.7155 400.996C81.1894 401.244 80.7336 401.532 80.3764 401.757C80.2086 401.863 79.5722 402.385 79.3886 402.039C79.2637 401.799 79.5476 401.273 79.8854 400.858C80.2645 400.4 80.7206 400.025 81.2225 399.744C80.9961 398.946 81.0508 398.332 81.6083 398.083C82.2997 397.774 82.8962 398.211 83.4819 399.157C84.4196 399.166 85.4523 399.533 86.0035 400.052C86.2178 400.253 86.2967 400.431 86.2261 400.555C86.0514 400.871 84.5166 400.503 84.1442 400.486Z"
            fill="#534B53" />
        <path
            d="M90.8485 402.552C91.474 402.671 92.0547 402.403 92.1466 401.951C92.2386 401.499 91.8057 401.036 91.1802 400.916C90.5547 400.796 89.974 401.065 89.8821 401.517C89.7901 401.969 90.223 402.432 90.8485 402.552Z"
            fill="#534B53" />
        <path
            d="M93.0432 399.842C92.8899 399.229 93.1331 398.642 93.5843 398.529C94.0358 398.418 94.5256 398.821 94.6786 399.433C94.8316 400.044 94.5884 400.631 94.1372 400.744C93.6861 400.857 93.1962 400.453 93.0432 399.842Z"
            fill="#534B53" />
        <path fill-rule="evenodd" clip-rule="evenodd"
            d="M107.225 404.046C107.218 404.034 107.242 404.075 107.225 404.046C108.127 403.804 109.818 404.448 110.481 406.921C111.14 409.381 110.853 412.445 110.774 413.129C109.41 422.94 101.833 430.229 91.158 432.756C81.206 435.113 71.4067 432.226 65.4747 424.829C63.2471 425.429 60.6904 425.077 58.5346 424.017C56.2626 422.901 54.5696 421.122 53.7661 419.009C53.1404 417.364 52.9289 415.734 53.0985 414.217L50.5648 413.041C38.9778 407.685 59.8933 367.244 71.5534 372.863C71.6122 372.891 75.6119 375.115 75.6215 375.121C79.6768 371.982 90.9402 365.057 93.2278 373.539C93.988 376.356 93.0491 380.13 90.9329 383.893C95.1284 386.074 95.4138 390.693 97.0274 394.569L98.2834 394.576C100.68 394.595 102.487 394.994 103.479 395.59C104.47 396.186 105.064 396.862 105.448 397.737C105.777 398.438 106.107 399.744 105.513 401.462C106.119 402.305 106.693 403.154 107.225 404.046ZM64.6947 422.587C65.0276 422.506 65.3504 422.397 65.6578 422.256C68.9631 420.746 68.8746 416.792 67.3283 413.301C65.5815 409.359 62.3732 408.664 60.4318 409.074C59.8923 409.189 59.4104 409.369 59.0244 409.559C55.7904 411.153 54.6303 414.539 56.0086 418.163C57.2556 421.443 61.4725 423.36 64.6947 422.587ZM53.5918 412.098C54.2978 410.148 55.8528 408.457 57.8697 407.479C58.6546 399.582 61.4036 391.764 66.1668 385.614C69.6264 380.77 73.7114 376.865 73.7114 376.865C73.7114 376.865 70.3426 374.605 69.5055 374.596C64.3734 374.603 55.9153 384.417 51.8029 395.492C50.1392 399.972 48.0993 407.665 50.8476 410.603C51.1867 410.968 52.7563 411.717 53.5918 412.098ZM95.3514 412.608C95.3796 412.683 95.3531 412.775 95.2916 412.822C95.2916 412.822 91.9162 415.621 85.3024 415.392C86.0133 417.166 88.4217 417.265 90.0417 417.1C97.9622 416.357 103.899 410.183 105.204 408.679C105.429 408.421 105.279 408.971 105.248 409.054C103.963 412.062 99.4869 416.345 92.6607 418.173C89.6835 418.969 86.4306 418.732 84.9122 417.434C82.5561 415.42 83.2012 411.386 86.1264 411.004C91.0436 410.257 95.8313 408.545 99.7087 405.336C103.089 402.537 104.025 400.204 103.384 398.69C102.391 396.342 98.6733 396.929 96.6868 396.826C95.8221 396.78 95.3739 396.677 94.8889 395.225C94.6772 394.59 93.9613 392.371 93.6705 391.452C93.1612 389.844 92.3657 387.67 90.7203 387.126C90.2912 386.984 89.8552 386.977 89.4226 387.069C89.0782 387.144 88.889 387.245 88.7874 387.299C88.7645 387.311 88.7461 387.321 88.7313 387.327C88.0098 387.657 87.6493 388.163 87.2241 388.76C87.1996 388.794 87.1749 388.829 87.1499 388.864C85.7894 390.767 84.379 391.397 82.7209 391.767C82.2046 391.882 81.6647 391.972 81.0951 392.067C80.5713 392.154 80.0224 392.246 79.4438 392.365L78.7374 392.512C75.9547 393.108 73.6374 396.237 74.0385 399.692C74.4857 403.548 77.1681 405.265 78.9126 406.381C79.3436 406.657 79.7174 406.896 79.9861 407.122C80.1556 407.256 80.3635 407.454 80.4237 407.678C80.4956 407.947 80.3764 408.206 80.2526 408.434C78.2136 412.027 78.5281 416.784 80.5924 420.266C80.8503 420.7 81.1381 421.105 81.4508 421.481C85.4574 426.53 93.8529 427.132 100.709 422.702C105.513 419.597 109.062 414.254 108.494 408.348C108.324 406.814 107.841 406.334 107.317 406.18C106.763 406.019 106.218 406.272 106.218 406.272C106.218 406.272 105.486 404.582 104.32 403.18C102.589 405.47 100.094 407.422 98.1126 408.604C94.9381 410.497 91.3291 411.87 87.6565 412.363C86.1669 412.562 85.1661 412.697 85.1077 414.137C90.301 414.58 95.1161 412.505 95.1161 412.505C95.2103 412.469 95.3158 412.515 95.3514 412.608ZM72.7919 383.056C70.553 385.058 68.2856 388.161 66.6556 391.469C66.5981 391.587 66.7567 391.686 66.839 391.585C68.4769 389.585 70.8948 387.486 74.3024 385.633C78.1195 383.558 82.1582 382.917 84.703 382.817C84.8311 382.812 84.8517 382.587 84.7288 382.556C82.9081 382.103 80.315 382.159 78.5854 382.609C78.5008 382.63 78.427 382.546 78.4594 382.466C78.6514 381.989 78.9555 381.489 79.2533 381.105C79.319 381.019 79.2331 380.899 79.1291 380.934C77.0165 381.639 72.711 385.19 72.7067 385.104C72.6728 384.474 72.8582 383.58 72.9648 383.158C72.9905 383.058 72.8693 382.988 72.7919 383.056Z"
            fill="#534B53" />
        <rect x="135.84" y="325.253" width="120" height="120" rx="60"
            transform="rotate(-15 135.84 325.253)" fill="#151415" />
        <path d="M204.548 337.901L215.69 379.484L238.949 328.684L204.548 337.901Z" fill="#534B53" />
        <path
            d="M187.019 362.452C196.429 359.93 201.678 348.358 199.256 339.32L164.855 348.537C167.277 357.576 177.608 364.973 187.019 362.452Z"
            fill="#534B53" />
        <path
            d="M220.147 396.118C217.725 387.079 222.974 375.507 232.384 372.986C241.794 370.464 252.126 377.861 254.548 386.9L220.147 396.118Z"
            fill="#534B53" />
        <path d="M214.855 397.536L203.712 355.953L180.454 406.753L214.855 397.536Z" fill="#534B53" />
        <rect x="267.206" y="290.054" width="120" height="120" rx="60"
            transform="rotate(-15 267.206 290.054)" fill="#151415" />
        <path
            d="M358.869 329.585C351.41 331.584 347.007 339.337 349.034 346.902C351.061 354.468 358.751 358.981 366.21 356.982C373.669 354.984 378.072 347.23 376.045 339.664C374.018 332.099 366.328 327.587 358.869 329.585ZM323.781 338.988C316.322 340.987 311.918 348.738 313.946 356.305C315.973 363.87 323.663 368.383 331.121 366.384C338.581 364.385 342.984 356.632 340.957 349.067C338.93 341.501 331.24 336.989 323.781 338.988ZM350.242 313.544C352.269 321.11 347.866 328.864 340.408 330.862C332.948 332.861 325.258 328.347 323.231 320.782C321.204 313.217 325.607 305.464 333.067 303.465C340.525 301.466 348.215 305.979 350.242 313.544Z"
            fill="#534B53" />
        <rect x="398.572" y="254.854" width="120" height="120" rx="60"
            transform="rotate(-15 398.572 254.854)" fill="#151415" />
        <path
            d="M440.082 284.108C437.668 284.755 436.303 287.485 437.032 290.207L443.437 314.111C445.297 321.052 451.794 325.342 457.948 323.693L483.768 316.51C486.182 315.863 487.547 313.132 486.818 310.411L480.347 286.261C478.487 279.32 471.191 275.772 465.037 277.421L440.082 284.108Z"
            fill="#534B53" />
        <path
            d="M485.54 282.013C484.392 283.976 484.094 286.444 484.721 288.786L487.401 298.789C488.029 301.131 489.522 303.12 491.497 304.245L503.507 310.2C506.008 311.625 508.682 309.211 507.888 306.246L498.861 272.556C498.066 269.59 494.543 268.837 493.09 271.321L485.54 282.013Z"
            fill="#534B53" />
        <rect x="529.938" y="219.655" width="120" height="120" rx="60"
            transform="rotate(-15 529.938 219.655)" fill="#151415" />
        <path
            d="M623.457 254.783C626.136 254.065 627.726 251.311 627.008 248.632C626.29 245.953 623.536 244.363 620.857 245.081C618.178 245.799 616.587 248.553 617.305 251.232L618.605 256.083L623.457 254.783ZM609.872 258.423C612.552 257.705 614.142 254.951 613.424 252.272L609.784 238.688C609.066 236.009 606.312 234.419 603.633 235.137C600.953 235.855 599.363 238.609 600.081 241.288L603.721 254.871C604.439 257.551 607.193 259.141 609.872 258.423Z"
            fill="#534B53" />
        <path
            d="M583.743 269.585C581.064 270.303 579.474 273.056 580.192 275.736C580.91 278.415 583.664 280.005 586.343 279.287C589.023 278.569 590.613 275.815 589.895 273.135L588.595 268.285L583.743 269.585ZM597.328 265.945C594.649 266.663 593.059 269.417 593.777 272.096L597.416 285.68C598.134 288.359 600.888 289.949 603.568 289.231C606.247 288.513 607.837 285.759 607.119 283.08L603.48 269.496C602.762 266.817 600.008 265.227 597.328 265.945Z"
            fill="#534B53" />
        <path
            d="M611.001 282.04C611.719 284.72 614.473 286.31 617.152 285.592C619.831 284.874 621.421 282.12 620.703 279.441C619.985 276.761 617.231 275.171 614.552 275.889L609.701 277.189L611.001 282.04ZM607.361 268.456C608.079 271.135 610.833 272.725 613.513 272.007L627.096 268.368C629.775 267.65 631.366 264.896 630.648 262.216C629.93 259.537 627.176 257.947 624.496 258.665L610.913 262.304C608.233 263.022 606.643 265.776 607.361 268.456Z"
            fill="#534B53" />
        <path
            d="M596.199 242.327C595.481 239.648 592.728 238.058 590.048 238.776C587.369 239.494 585.779 242.248 586.497 244.927C587.215 247.607 589.969 249.197 592.649 248.479L597.499 247.179L596.199 242.327ZM599.839 255.912C599.121 253.232 596.367 251.642 593.688 252.36L580.104 256C577.425 256.718 575.835 259.472 576.553 262.151C577.271 264.831 580.025 266.421 582.704 265.703L596.288 262.063C598.967 261.345 600.557 258.591 599.839 255.912Z"
            fill="#534B53" />
        <rect x="661.304" y="184.456" width="120" height="120" rx="60"
            transform="rotate(-15 661.304 184.456)" fill="#151415" />
        <path fill-rule="evenodd" clip-rule="evenodd"
            d="M749.968 189.686L703.364 202.173C699.074 203.323 696.528 207.73 697.677 212.017L710.156 258.591C711.305 262.878 715.714 265.422 720.004 264.273L766.608 251.785C770.876 250.618 773.4 246.224 772.256 241.952L759.776 195.377C758.631 191.106 754.248 188.562 749.968 189.686ZM710.614 208.55L720.964 205.777C723.822 205.011 726.76 206.707 727.525 209.565L737.232 245.79C737.998 248.648 736.302 251.586 733.443 252.352L723.094 255.125C720.236 255.891 717.298 254.195 716.532 251.336L706.826 215.112C706.06 212.254 707.756 209.316 710.614 208.55ZM746.839 198.844L736.489 201.617C733.631 202.383 731.935 205.321 732.7 208.179L737.554 226.291C738.319 229.149 741.257 230.845 744.115 230.079L754.465 227.306C757.323 226.54 759.019 223.603 758.253 220.745L753.4 202.632C752.634 199.774 749.697 198.078 746.839 198.844Z"
            fill="#534B53" />
        <rect x="792.67" y="149.256" width="120" height="120" rx="60"
            transform="rotate(-15 792.67 149.256)" fill="#151415" />
        <path fill-rule="evenodd" clip-rule="evenodd"
            d="M897.119 182.485C901.569 199.092 891.275 216.279 874.126 220.874C870.963 221.722 867.787 222.082 864.683 222.001L858.731 226.799C856.827 228.333 853.978 227.387 853.34 225.009L851.71 218.924C843.723 215.157 837.44 208.157 835.02 199.124C830.57 182.518 840.864 165.33 858.012 160.735C875.16 156.141 892.669 165.878 897.119 182.485ZM851.217 201.131L856.921 186.405C857.524 184.85 859.331 184.064 860.905 184.671L869.053 187.817C870.004 188.184 871.103 187.878 871.726 187.072L878.197 178.706C879.25 177.344 881.428 178.474 880.803 180.059L874.777 195.34C874.168 196.885 872.368 197.662 870.8 197.057L862.626 193.901C861.679 193.536 860.584 193.838 859.96 194.636L853.822 202.482C852.767 203.831 850.605 202.71 851.217 201.131Z"
            fill="#534B53" />
        <rect x="924.035" y="114.057" width="120" height="120" rx="60"
            transform="rotate(-15 924.035 114.057)" fill="#151415" />
        <path
            d="M984.677 153.896L984.547 153.412C984.219 152.186 984.928 150.906 986.171 150.483L995.224 147.397L1013 162.753L1008.59 146.278L1005.19 146.72L1005.13 146.49C1004.79 145.25 1005.52 143.957 1006.79 143.548L1015.06 140.871L1015.38 142.078C1015.54 142.645 1015.24 143.242 1014.69 143.495L1012.77 144.377L1019.92 171.058L1017.62 172.608C1015.69 173.902 1013.13 173.755 1011.43 172.251L994.05 156.893L998.825 174.717L1002.83 174.425L1002.87 174.792C1003 175.944 1002.27 177.037 1001.13 177.398L991.768 180.358C991.323 179.201 991.93 177.898 993.126 177.439L994.337 176.974L987.969 153.209L984.677 153.896Z"
            fill="#534B53" />
        <path fill-rule="evenodd" clip-rule="evenodd"
            d="M1000.35 122.614L963.066 135.384C960.833 136.149 959.56 138.451 960.15 140.655L970.049 177.596C970.603 179.667 971.856 181.488 973.608 182.773L984.53 190.78C986.296 192.075 988.623 192.425 990.743 191.715L1032.2 177.825C1034.33 177.113 1035.54 174.93 1034.98 172.837L1023.73 130.839C1023.38 129.544 1022.41 128.506 1021.11 128.059L1005.35 122.612C1003.74 122.057 1001.98 122.058 1000.35 122.614ZM966.226 139.644C965.593 139.395 965.626 138.513 966.277 138.287L1001.55 126.071C1002.68 125.681 1003.9 125.692 1005 126.1L1013.59 129.279C1013.91 129.4 1013.9 129.853 1013.56 129.963L976.031 142.24C974.895 142.611 973.666 142.577 972.568 142.144L966.226 139.644ZM975.984 149.212C975.653 147.975 976.379 146.685 977.638 146.273L1017.32 133.289C1018.55 132.888 1019.85 133.565 1020.18 134.771L1029.92 171.137C1030.25 172.372 1029.53 173.66 1028.27 174.075L988.868 187.073C987.503 187.524 986.048 186.772 985.689 185.429L975.984 149.212Z"
            fill="#534B53" />
        <rect x="1055.4" y="78.8574" width="120" height="120" rx="60"
            transform="rotate(-15 1055.4 78.8574)" fill="#151415" />
        <path fill-rule="evenodd" clip-rule="evenodd"
            d="M1108.55 93.605C1111.96 92.6891 1115.4 92.6863 1118.56 93.4426C1119.46 93.1054 1120.39 92.8084 1121.34 92.5543C1137.26 88.2877 1153.63 97.7373 1157.9 113.661C1158.28 115.083 1158.55 116.509 1158.72 117.929C1161.03 120.166 1162.79 123.039 1163.68 126.373C1166.3 136.172 1160.49 146.245 1150.69 148.87C1147.36 149.764 1143.99 149.68 1140.9 148.794C1139.58 149.359 1138.21 149.837 1136.79 150.218C1120.87 154.485 1104.5 145.035 1100.23 129.112C1099.83 127.619 1099.55 126.122 1099.39 124.632C1097.06 122.447 1095.32 119.649 1094.45 116.399C1091.82 106.6 1098.13 96.3947 1108.55 93.605ZM1135.82 108.484C1136.59 105.108 1129.74 104.565 1125.06 105.82C1120.37 107.076 1114.91 111.708 1116.3 116.883C1117.69 122.058 1122.09 122.86 1126.49 123.661C1127.37 123.822 1128.33 123.909 1129.3 123.997C1132.2 124.261 1135.09 124.525 1135.69 126.743C1136.48 129.7 1133.55 131.277 1130.43 132.114C1129.31 132.414 1127.88 132.229 1126.46 132.045C1123.92 131.717 1121.42 131.394 1120.85 133.886C1120.08 137.262 1125.52 138.976 1131.81 137.289C1138.84 135.405 1143.52 130.983 1141.94 125.068C1140.45 119.525 1133.66 118.884 1129.27 118.47C1128.98 118.442 1128.69 118.415 1128.42 118.388C1124.12 117.956 1122.94 116.687 1122.55 115.208C1122.15 113.73 1123.32 111.833 1126.44 110.995C1127.48 110.716 1128.76 110.857 1130.03 110.997C1132.57 111.279 1135.12 111.56 1135.82 108.484Z"
            fill="#534B53" />
        <rect x="1186.77" y="43.6582" width="120" height="120" rx="60"
            transform="rotate(-15 1186.77 43.6582)" fill="#151415" />
        <path
            d="M1257.77 76.2419L1243.38 61.6193C1243.62 61.2021 1243.93 60.8855 1244.27 60.6399C1241.64 62.36 1241.19 65.9491 1241.19 65.9491L1231.78 102.218C1231.79 103.272 1231.96 104.182 1232.2 104.959L1251.68 99.7395L1257.77 76.2419Z"
            fill="#534B53" />
        <path
            d="M1257.77 76.2422L1274.8 93.5458L1294.27 88.3265C1294.1 87.5333 1293.79 86.6607 1293.27 85.7408L1266.99 59.0359C1266.99 59.0359 1264.8 56.156 1261.66 55.9789C1262.07 56.0254 1262.51 56.1411 1262.92 56.3844L1257.77 76.2422Z"
            fill="#534B53" />
        <path
            d="M1257.77 76.2441L1262.92 56.3863C1262.51 56.1429 1262.07 56.0272 1261.66 55.9807C1261.2 55.9562 1260.72 55.9863 1260.22 56.0942L1259.7 56.2325L1246.09 59.879L1245.58 60.0173C1245.09 60.1704 1244.66 60.3861 1244.27 60.6421C1243.94 60.8868 1243.62 61.2043 1243.38 61.6215L1257.77 76.2441Z"
            fill="#3C363C" />
        <path
            d="M1251.68 99.7393L1246.59 119.372C1246.59 119.372 1246.23 119.302 1245.71 119.095C1247.36 119.783 1248.75 119.649 1248.75 119.649L1286.68 109.486C1288.77 108.926 1289 108.01 1289 108.01C1289 108.005 1289 108 1289.01 107.995L1274.8 93.5462L1251.68 99.7393Z"
            fill="#534B53" />
        <path
            d="M1251.68 99.7392L1232.2 104.958C1232.92 107.248 1234.29 108.331 1234.29 108.331L1235.36 109.406C1235.43 109.467 1235.48 109.501 1235.48 109.501L1237.82 111.872L1243.07 117.142C1243.24 117.366 1243.42 117.564 1243.61 117.75C1243.68 117.811 1243.75 117.881 1243.82 117.938C1243.84 117.955 1243.86 117.973 1243.88 117.99C1244.49 118.497 1245.11 118.847 1245.71 119.094C1246.23 119.304 1246.6 119.371 1246.6 119.371L1251.68 99.7392Z"
            fill="#3C363C" />
        <path
            d="M1274.8 93.5464L1294.27 88.3271C1294.8 90.6685 1294.15 92.2906 1294.15 92.2906L1293.76 93.7581C1293.73 93.8467 1293.71 93.8977 1293.71 93.8977L1292.87 97.123L1290.96 104.31C1290.92 104.59 1290.86 104.854 1290.79 105.109C1290.76 105.196 1290.74 105.29 1290.7 105.375C1290.7 105.4 1290.69 105.425 1290.68 105.45C1290.4 106.194 1290.04 106.81 1289.64 107.322C1289.3 107.766 1289.02 108.005 1289.02 108.005L1274.8 93.5464Z"
            fill="#3C363C" />
        <rect x="74.8729" y="623.185" width="120" height="120" rx="60"
            transform="rotate(-15 74.8729 623.185)" fill="#151415" />
        <path
            d="M134.955 680.395C133.741 679.318 135.384 676.756 134.054 675.331C133.288 674.508 132.295 674.134 131.261 674.277C130.269 674.413 129.374 675.03 128.927 675.886C128.222 677.235 128.463 678.751 128.795 679.221C128.917 679.393 129.041 679.416 129.124 679.406C129.685 679.332 129.617 677.859 129.727 677.519C130.03 676.582 131.14 676.025 132.092 676.333C133.898 676.916 132.994 678.882 133.473 680.209C133.94 681.502 134.906 681.813 135.661 681.67C136.388 681.505 136.784 680.97 136.833 680.644C136.951 679.866 135.955 681.281 134.955 680.395Z"
            fill="#534B53" />
        <path
            d="M163.885 659.773C163.467 659.825 163.026 659.944 162.582 660.122C162.115 659.776 161.612 659.147 161.214 658.364C160.504 656.97 160.25 655.89 161.087 655.517C161.925 655.144 162.587 655.925 163.296 657.319C163.773 658.256 163.977 659.18 163.885 659.773Z"
            fill="#534B53" />
        <path
            d="M154.543 663.218C154.667 663.544 154.77 663.879 154.844 664.193C155.703 664.016 156.41 664.258 156.638 664.47C156.755 664.58 156.746 664.674 156.73 664.721C156.679 664.881 156.485 664.91 156.08 664.971C155.727 665.025 155.348 665.09 154.968 665.211C154.931 665.908 154.327 666.134 153.764 665.777C153.484 665.951 152.989 666.493 152.699 666.126C152.642 665.92 152.778 665.563 153.097 665.195C152.694 664.758 152.37 664.262 152.114 663.728C151.588 663.976 151.132 664.264 150.775 664.489C150.607 664.595 149.971 665.116 149.787 664.771C149.663 664.531 149.946 664.005 150.284 663.59C150.663 663.132 151.119 662.757 151.621 662.476C151.395 661.677 151.45 661.063 152.007 660.815C152.699 660.506 153.295 660.942 153.881 661.889C154.818 661.898 155.851 662.265 156.402 662.784C156.617 662.985 156.695 663.163 156.625 663.287C156.45 663.603 154.915 663.235 154.543 663.218Z"
            fill="#534B53" />
        <path
            d="M161.247 665.283C161.873 665.403 162.453 665.135 162.545 664.683C162.637 664.231 162.205 663.768 161.579 663.648C160.954 663.528 160.373 663.797 160.281 664.249C160.189 664.701 160.622 665.164 161.247 665.283Z"
            fill="#534B53" />
        <path
            d="M163.442 662.574C163.289 661.961 163.532 661.374 163.983 661.261C164.435 661.149 164.924 661.553 165.077 662.165C165.23 662.776 164.987 663.363 164.536 663.476C164.085 663.589 163.595 663.185 163.442 662.574Z"
            fill="#534B53" />
        <path fill-rule="evenodd" clip-rule="evenodd"
            d="M177.624 666.778C177.617 666.766 177.641 666.807 177.624 666.778C178.526 666.536 180.217 667.18 180.88 669.653C181.539 672.113 181.251 675.177 181.173 675.861C179.809 685.672 172.232 692.961 161.557 695.488C151.605 697.845 141.805 694.958 135.874 687.561C133.646 688.161 131.089 687.809 128.933 686.749C126.661 685.633 124.968 683.854 124.165 681.741C123.539 680.096 123.328 678.466 123.497 676.949L120.964 675.773C109.377 670.417 130.292 629.976 141.952 635.595C142.011 635.623 146.011 637.847 146.02 637.853C150.076 634.714 161.339 627.789 163.627 636.271C164.387 639.088 163.448 642.862 161.332 646.625C165.527 648.806 165.813 653.425 167.426 657.301L168.682 657.308C171.078 657.327 172.886 657.726 173.878 658.322C174.869 658.918 175.463 659.594 175.847 660.469C176.175 661.17 176.506 662.475 175.912 664.193C176.518 665.037 177.092 665.885 177.624 666.778ZM135.094 685.319C135.426 685.238 135.749 685.129 136.057 684.988C139.362 683.478 139.273 679.524 137.727 676.033C135.98 672.091 132.772 671.396 130.831 671.806C130.291 671.921 129.809 672.101 129.423 672.291C126.189 673.885 125.029 677.271 126.407 680.895C127.654 684.175 131.871 686.092 135.094 685.319ZM123.991 674.83C124.697 672.88 126.252 671.189 128.268 670.211C129.053 662.314 131.802 654.496 136.566 648.346C140.025 643.502 144.11 639.597 144.11 639.597C144.11 639.597 140.741 637.337 139.904 637.328C134.772 637.335 126.314 647.149 122.202 658.224C120.538 662.704 118.498 670.397 121.246 673.335C121.585 673.7 123.155 674.449 123.991 674.83ZM165.75 675.34C165.778 675.415 165.752 675.507 165.69 675.554C165.69 675.554 162.315 678.353 155.701 678.124C156.412 679.898 158.821 679.997 160.44 679.832C168.361 679.089 174.298 672.915 175.603 671.411C175.827 671.153 175.678 671.702 175.647 671.786C174.361 674.794 169.886 679.077 163.06 680.905C160.082 681.701 156.829 681.464 155.311 680.166C152.955 678.152 153.6 674.117 156.525 673.736C161.442 672.989 166.23 671.277 170.107 668.068C173.488 665.269 174.423 662.936 173.783 661.421C172.79 659.074 169.072 659.661 167.086 659.558C166.221 659.511 165.773 659.409 165.288 657.956C165.076 657.322 164.36 655.103 164.069 654.184C163.56 652.576 162.765 650.402 161.119 649.858C160.69 649.716 160.254 649.709 159.821 649.801C159.477 649.876 159.288 649.977 159.186 650.031C159.163 650.043 159.145 650.053 159.13 650.059C158.409 650.389 158.048 650.895 157.623 651.492C157.598 651.526 157.574 651.561 157.549 651.596C156.188 653.499 154.778 654.129 153.12 654.499C152.603 654.614 152.063 654.704 151.494 654.799C150.97 654.886 150.421 654.978 149.843 655.097L149.136 655.244C146.353 655.84 144.036 658.969 144.437 662.424C144.885 666.28 147.567 667.997 149.311 669.113C149.742 669.389 150.116 669.628 150.385 669.854C150.554 669.988 150.762 670.186 150.823 670.41C150.894 670.679 150.775 670.938 150.651 671.166C148.612 674.759 148.927 679.516 150.991 682.998C151.249 683.432 151.537 683.837 151.85 684.213C155.856 689.262 164.252 689.864 171.107 685.434C175.912 682.329 179.461 676.986 178.893 671.08C178.723 669.546 178.24 669.066 177.716 668.912C177.161 668.751 176.617 669.004 176.617 669.004C176.617 669.004 175.885 667.314 174.719 665.912C172.988 668.202 170.493 670.154 168.511 671.336C165.337 673.229 161.728 674.602 158.055 675.095C156.566 675.294 155.565 675.429 155.507 676.869C160.7 677.312 165.515 675.237 165.515 675.237C165.609 675.201 165.715 675.247 165.75 675.34ZM143.191 645.788C140.952 647.79 138.684 650.893 137.054 654.201C136.997 654.319 137.156 654.418 137.238 654.317C138.876 652.317 141.294 650.218 144.701 648.365C148.518 646.29 152.557 645.649 155.102 645.549C155.23 645.544 155.25 645.319 155.128 645.288C153.307 644.835 150.714 644.891 148.984 645.341C148.9 645.362 148.826 645.278 148.858 645.198C149.05 644.721 149.354 644.221 149.652 643.837C149.718 643.75 149.632 643.631 149.528 643.666C147.415 644.371 143.11 647.922 143.106 647.836C143.072 647.206 143.257 646.312 143.364 645.89C143.389 645.79 143.268 645.72 143.191 645.788Z"
            fill="#534B53" />
        <rect x="206.239" y="587.985" width="120" height="120" rx="60"
            transform="rotate(-15 206.239 587.985)" fill="#151415" />
        <path d="M274.947 600.633L286.089 642.216L309.347 591.416L274.947 600.633Z" fill="#534B53" />
        <path
            d="M257.417 625.184C266.828 622.662 272.076 611.09 269.654 602.051L235.254 611.269C237.676 620.308 248.007 627.705 257.417 625.184Z"
            fill="#534B53" />
        <path
            d="M290.546 658.85C288.124 649.811 293.372 638.239 302.783 635.717C312.193 633.196 322.524 640.593 324.946 649.632L290.546 658.85Z"
            fill="#534B53" />
        <path d="M285.253 660.268L274.111 618.685L250.853 669.485L285.253 660.268Z" fill="#534B53" />
        <rect x="337.605" y="552.786" width="120" height="120" rx="60"
            transform="rotate(-15 337.605 552.786)" fill="#151415" />
        <path
            d="M429.268 592.317C421.808 594.316 417.405 602.069 419.433 609.634C421.46 617.2 429.149 621.713 436.609 619.714C444.068 617.715 448.471 609.962 446.444 602.396C444.416 594.831 436.727 590.318 429.268 592.317ZM394.18 601.72C386.721 603.718 382.317 611.47 384.344 619.036C386.371 626.602 394.062 631.115 401.52 629.116C408.979 627.117 413.383 619.364 411.356 611.799C409.329 604.233 401.639 599.721 394.18 601.72ZM420.64 576.276C422.668 583.842 418.265 591.596 410.806 593.594C403.347 595.593 395.657 591.079 393.63 583.514C391.603 575.949 396.006 568.195 403.465 566.197C410.924 564.198 418.613 568.711 420.64 576.276Z"
            fill="#534B53" />
        <rect x="468.971" y="517.586" width="120" height="120" rx="60"
            transform="rotate(-15 468.971 517.586)" fill="#151415" />
        <path
            d="M510.481 546.84C508.067 547.487 506.702 550.217 507.431 552.939L513.836 576.843C515.696 583.784 522.193 588.074 528.347 586.424L554.167 579.242C556.581 578.595 557.946 575.864 557.217 573.142L550.746 548.993C548.886 542.052 541.59 538.504 535.435 540.153L510.481 546.84Z"
            fill="#534B53" />
        <path
            d="M555.939 544.745C554.791 546.708 554.492 549.176 555.12 551.518L557.8 561.521C558.428 563.863 559.92 565.851 561.896 566.977L573.906 572.932C576.407 574.357 579.081 571.943 578.287 568.978L569.259 535.288C568.465 532.322 564.942 531.569 563.489 534.053L555.939 544.745Z"
            fill="#534B53" />
        <rect x="600.337" y="482.387" width="120" height="120" rx="60"
            transform="rotate(-15 600.337 482.387)" fill="#151415" />
        <path
            d="M693.856 517.515C696.535 516.797 698.125 514.043 697.407 511.364C696.689 508.685 693.935 507.095 691.256 507.813C688.577 508.531 686.986 511.285 687.704 513.964L689.004 518.815L693.856 517.515ZM680.271 521.155C682.951 520.437 684.541 517.683 683.823 515.003L680.183 501.42C679.465 498.741 676.711 497.151 674.032 497.868C671.352 498.586 669.762 501.341 670.48 504.02L674.12 517.603C674.838 520.283 677.592 521.873 680.271 521.155Z"
            fill="#534B53" />
        <path
            d="M654.142 532.317C651.463 533.034 649.873 535.788 650.591 538.468C651.309 541.147 654.063 542.737 656.742 542.019C659.422 541.301 661.012 538.547 660.294 535.867L658.994 531.017L654.142 532.317ZM667.727 528.677C665.048 529.395 663.458 532.149 664.175 534.828L667.815 548.411C668.533 551.091 671.287 552.681 673.967 551.963C676.646 551.245 678.236 548.491 677.518 545.812L673.878 532.228C673.161 529.549 670.406 527.959 667.727 528.677Z"
            fill="#534B53" />
        <path
            d="M681.4 544.772C682.118 547.452 684.872 549.042 687.551 548.324C690.23 547.606 691.82 544.852 691.102 542.173C690.384 539.493 687.63 537.903 684.951 538.621L680.1 539.92L681.4 544.772ZM677.76 531.188C678.478 533.867 681.232 535.457 683.912 534.739L697.495 531.1C700.174 530.382 701.764 527.628 701.047 524.948C700.329 522.269 697.574 520.679 694.895 521.397L681.312 525.036C678.632 525.754 677.042 528.508 677.76 531.188Z"
            fill="#534B53" />
        <path
            d="M666.598 505.059C665.88 502.38 663.126 500.79 660.447 501.508C657.768 502.226 656.178 504.98 656.896 507.659C657.614 510.338 660.368 511.929 663.048 511.211L667.898 509.911L666.598 505.059ZM670.238 518.644C669.52 515.964 666.766 514.374 664.087 515.092L650.503 518.732C647.824 519.45 646.234 522.204 646.952 524.883C647.67 527.563 650.424 529.153 653.103 528.435L666.687 524.795C669.366 524.077 670.956 521.323 670.238 518.644Z"
            fill="#534B53" />
        <rect x="731.702" y="447.188" width="120" height="120" rx="60"
            transform="rotate(-15 731.702 447.188)" fill="#151415" />
        <path fill-rule="evenodd" clip-rule="evenodd"
            d="M820.367 452.418L773.763 464.905C769.473 466.055 766.927 470.462 768.075 474.749L780.555 521.323C781.704 525.61 786.112 528.154 790.402 527.004L837.006 514.517C841.275 513.35 843.799 508.956 842.654 504.684L830.175 458.109C829.03 453.838 824.647 451.294 820.367 452.418ZM781.013 471.282L791.363 468.509C794.221 467.743 797.158 469.439 797.924 472.297L807.63 508.522C808.396 511.38 806.7 514.318 803.842 515.083L793.492 517.857C790.634 518.623 787.697 516.926 786.931 514.068L777.224 477.844C776.459 474.986 778.155 472.048 781.013 471.282ZM817.237 461.576L806.887 464.349C804.029 465.115 802.333 468.053 803.099 470.911L807.952 489.023C808.718 491.881 811.656 493.577 814.514 492.811L824.864 490.038C827.722 489.272 829.418 486.335 828.652 483.476L823.799 465.364C823.033 462.506 820.095 460.81 817.237 461.576Z"
            fill="#534B53" />
        <rect x="863.068" y="411.988" width="120" height="120" rx="60"
            transform="rotate(-15 863.068 411.988)" fill="#151415" />
        <path fill-rule="evenodd" clip-rule="evenodd"
            d="M967.518 445.217C971.967 461.824 961.673 479.011 944.525 483.606C941.361 484.454 938.185 484.814 935.081 484.732L929.13 489.531C927.226 491.065 924.376 490.119 923.739 487.741L922.109 481.656C914.122 477.889 907.839 470.889 905.418 461.856C900.969 445.25 911.263 428.062 928.411 423.467C945.559 418.873 963.068 428.61 967.518 445.217ZM921.616 463.863L927.32 449.137C927.922 447.582 929.73 446.796 931.304 447.403L939.451 450.549C940.402 450.916 941.502 450.61 942.125 449.804L948.595 441.438C949.649 440.076 951.827 441.206 951.202 442.791L945.176 458.072C944.567 459.617 942.766 460.394 941.199 459.789L933.024 456.633C932.078 456.268 930.983 456.57 930.358 457.368L924.22 465.214C923.165 466.563 921.004 465.442 921.616 463.863Z"
            fill="#534B53" />
        <rect x="994.434" y="376.789" width="120" height="120" rx="60"
            transform="rotate(-15 994.434 376.789)" fill="#151415" />
        <path
            d="M1055.08 416.628L1054.95 416.144C1054.62 414.918 1055.33 413.638 1056.57 413.215L1065.62 410.129L1083.4 425.485L1078.99 409.01L1075.59 409.452L1075.53 409.222C1075.19 407.982 1075.92 406.689 1077.19 406.28L1085.46 403.603L1085.78 404.81C1085.93 405.377 1085.64 405.974 1085.09 406.227L1083.17 407.109L1090.31 433.79L1088.01 435.34C1086.09 436.634 1083.53 436.487 1081.83 434.983L1064.45 419.625L1069.22 437.448L1073.23 437.157L1073.27 437.524C1073.4 438.676 1072.67 439.769 1071.53 440.13L1062.17 443.09C1061.72 441.933 1062.33 440.63 1063.52 440.171L1064.74 439.706L1058.37 415.941L1055.08 416.628Z"
            fill="#534B53" />
        <path fill-rule="evenodd" clip-rule="evenodd"
            d="M1070.75 385.346L1033.47 398.116C1031.23 398.881 1029.96 401.183 1030.55 403.387L1040.45 440.328C1041 442.399 1042.25 444.22 1044.01 445.505L1054.93 453.512C1056.7 454.807 1059.02 455.157 1061.14 454.447L1102.6 440.557C1104.73 439.845 1105.94 437.662 1105.38 435.569L1094.13 393.571C1093.78 392.276 1092.8 391.238 1091.51 390.79L1075.75 385.344C1074.14 384.789 1072.38 384.79 1070.75 385.346ZM1036.63 402.376C1035.99 402.127 1036.03 401.245 1036.68 401.019L1071.95 388.803C1073.07 388.413 1074.3 388.424 1075.4 388.832L1083.99 392.011C1084.31 392.132 1084.3 392.585 1083.96 392.695L1046.43 404.972C1045.29 405.343 1044.07 405.309 1042.97 404.876L1036.63 402.376ZM1046.38 411.944C1046.05 410.707 1046.78 409.417 1048.04 409.005L1087.72 396.021C1088.95 395.62 1090.25 396.297 1090.58 397.503L1100.32 433.869C1100.65 435.104 1099.93 436.392 1098.67 436.806L1059.27 449.805C1057.9 450.256 1056.45 449.503 1056.09 448.161L1046.38 411.944Z"
            fill="#534B53" />
        <rect x="1125.8" y="341.589" width="120" height="120" rx="60"
            transform="rotate(-15 1125.8 341.589)" fill="#151415" />
        <path fill-rule="evenodd" clip-rule="evenodd"
            d="M1178.94 356.337C1182.36 355.421 1185.8 355.418 1188.96 356.174C1189.86 355.837 1190.79 355.54 1191.74 355.286C1207.66 351.02 1224.03 360.469 1228.29 376.393C1228.68 377.815 1228.95 379.241 1229.11 380.661C1231.43 382.898 1233.18 385.771 1234.08 389.105C1236.7 398.904 1230.89 408.977 1221.09 411.602C1217.75 412.496 1214.39 412.412 1211.3 411.526C1209.98 412.091 1208.61 412.569 1207.19 412.95C1191.26 417.217 1174.9 407.767 1170.63 391.844C1170.23 390.351 1169.95 388.854 1169.79 387.364C1167.46 385.179 1165.72 382.381 1164.85 379.131C1162.22 369.332 1168.53 359.127 1178.94 356.337ZM1206.22 371.216C1206.99 367.84 1200.14 367.297 1195.46 368.552C1190.77 369.808 1185.31 374.44 1186.7 379.615C1188.08 384.79 1192.49 385.592 1196.89 386.393C1197.77 386.553 1198.73 386.641 1199.7 386.729C1202.59 386.993 1205.49 387.257 1206.09 389.475C1206.88 392.432 1203.95 394.009 1200.83 394.846C1199.71 395.145 1198.28 394.96 1196.86 394.777C1194.32 394.448 1191.82 394.126 1191.25 396.618C1190.48 399.994 1195.91 401.708 1202.21 400.021C1209.24 398.137 1213.92 393.715 1212.33 387.8C1210.85 382.257 1204.06 381.616 1199.67 381.202C1199.38 381.174 1199.09 381.147 1198.82 381.12C1194.52 380.688 1193.34 379.419 1192.95 377.94C1192.55 376.462 1193.72 374.565 1196.84 373.727C1197.88 373.448 1199.16 373.589 1200.43 373.729C1202.97 374.01 1205.51 374.292 1206.22 371.216Z"
            fill="#534B53" />
        <rect x="1257.17" y="306.39" width="120" height="120" rx="60"
            transform="rotate(-15 1257.17 306.39)" fill="#151415" />
        <path
            d="M1328.17 338.974L1313.78 324.351C1314.02 323.934 1314.33 323.617 1314.67 323.372C1312.04 325.092 1311.58 328.681 1311.58 328.681L1302.18 364.95C1302.19 366.004 1302.36 366.914 1302.6 367.691L1322.08 362.471L1328.17 338.974Z"
            fill="#534B53" />
        <rect x="1064.83" y="639.521" width="120" height="120" rx="60"
            transform="rotate(-15 1064.83 639.521)" fill="#151415" />
        <rect x="1196.2" y="604.321" width="120" height="120" rx="60"
            transform="rotate(-15 1196.2 604.321)" fill="#151415" />
        <path fill-rule="evenodd" clip-rule="evenodd"
            d="M1249.34 619.069C1252.76 618.153 1256.2 618.15 1259.36 618.906C1260.26 618.569 1261.19 618.272 1262.14 618.018C1278.06 613.752 1294.43 623.201 1298.69 639.125C1299.07 640.547 1299.35 641.973 1299.51 643.393C1301.83 645.63 1303.58 648.503 1304.48 651.837C1307.1 661.636 1301.29 671.709 1291.49 674.334C1288.15 675.228 1284.79 675.144 1281.69 674.258C1280.38 674.823 1279.01 675.301 1277.59 675.682C1261.66 679.949 1245.3 670.499 1241.03 654.576C1240.63 653.083 1240.35 651.586 1240.19 650.096C1237.86 647.911 1236.12 645.113 1235.25 641.863C1232.62 632.064 1238.93 621.859 1249.34 619.069ZM1276.61 633.947C1277.38 630.572 1270.54 630.028 1265.85 631.284C1261.17 632.54 1255.71 637.172 1257.1 642.347C1258.48 647.522 1262.88 648.323 1267.29 649.125C1268.17 649.285 1269.13 649.373 1270.1 649.461C1272.99 649.725 1275.89 649.989 1276.48 652.207C1277.28 655.164 1274.35 656.74 1271.22 657.578C1270.11 657.877 1268.68 657.692 1267.26 657.509C1264.72 657.18 1262.22 656.857 1261.65 659.35C1260.88 662.726 1266.31 664.44 1272.61 662.753C1279.64 660.869 1284.32 656.446 1282.73 650.532C1281.25 644.989 1274.46 644.348 1270.07 643.934C1269.77 643.906 1269.49 643.879 1269.22 643.852C1264.92 643.42 1263.74 642.151 1263.35 640.672C1262.95 639.194 1264.12 637.297 1267.24 636.459C1268.28 636.18 1269.55 636.321 1270.83 636.461C1273.37 636.742 1275.91 637.023 1276.61 633.947Z"
            fill="#534B53" />
        <rect x="-65.9246" y="97.7207" width="120" height="120" rx="60"
            transform="rotate(-15 -65.9246 97.7207)" fill="#151415" />
        <path
            d="M-5.842 154.931C-7.05664 153.855 -5.41383 151.292 -6.74322 149.867C-7.50971 149.044 -8.50272 148.67 -9.53661 148.813C-10.5289 148.95 -11.4237 149.566 -11.87 150.422C-12.5751 151.771 -12.3348 153.287 -12.0025 153.757C-11.8808 153.93 -11.7561 153.952 -11.6739 153.942C-11.1127 153.868 -11.1804 152.395 -11.0709 152.055C-10.7675 151.118 -9.65727 150.561 -8.70517 150.869C-6.89993 151.452 -7.8031 153.418 -7.32399 154.745C-6.85759 156.038 -5.89102 156.349 -5.13622 156.206C-4.4092 156.041 -4.01307 155.506 -3.9642 155.18C-3.8462 154.402 -4.84261 155.817 -5.842 154.931Z"
            fill="#534B53" />
        <path
            d="M23.0876 134.309C22.6691 134.361 22.2283 134.481 21.7841 134.658C21.3178 134.312 20.815 133.684 20.4163 132.9C19.7069 131.506 19.4528 130.427 20.29 130.053C21.1272 129.68 21.7895 130.461 22.4988 131.855C22.9752 132.792 23.1795 133.716 23.0876 134.309Z"
            fill="#534B53" />
        <path
            d="M13.7456 137.754C13.8698 138.08 13.9728 138.415 14.0465 138.73C14.9059 138.553 15.613 138.794 15.8408 139.006C15.9579 139.116 15.9481 139.21 15.9324 139.257C15.8814 139.417 15.688 139.446 15.2829 139.507C14.9291 139.561 14.5502 139.626 14.1705 139.747C14.1332 140.444 13.5291 140.67 12.9662 140.313C12.6867 140.487 12.1911 141.029 11.9017 140.662C11.845 140.456 11.9801 140.099 12.2992 139.731C11.897 139.294 11.573 138.798 11.3168 138.264C10.7907 138.512 10.3349 138.8 9.97768 139.026C9.80991 139.132 9.17353 139.653 8.9899 139.307C8.86506 139.067 9.14892 138.541 9.4867 138.126C9.8658 137.668 10.3219 137.293 10.8238 137.012C10.5974 136.214 10.6521 135.6 11.2097 135.351C11.901 135.043 12.4976 135.479 13.0832 136.425C14.0209 136.434 15.0536 136.801 15.6049 137.32C15.8191 137.521 15.898 137.699 15.8274 137.823C15.6527 138.139 14.118 137.771 13.7456 137.754Z"
            fill="#534B53" />
        <path
            d="M20.4498 139.82C21.0753 139.94 21.656 139.671 21.7479 139.219C21.8399 138.767 21.407 138.304 20.7815 138.184C20.156 138.064 19.5753 138.333 19.4834 138.785C19.3914 139.237 19.8243 139.7 20.4498 139.82Z"
            fill="#534B53" />
        <path
            d="M22.6445 137.11C22.4912 136.497 22.7344 135.91 23.1856 135.797C23.6371 135.686 24.127 136.089 24.28 136.701C24.433 137.312 24.1897 137.899 23.7385 138.012C23.2874 138.125 22.7975 137.721 22.6445 137.11Z"
            fill="#534B53" />
        <path fill-rule="evenodd" clip-rule="evenodd"
            d="M36.8264 141.314C36.8193 141.302 36.8436 141.343 36.8264 141.314C37.7286 141.072 39.4195 141.716 40.0821 144.189C40.7414 146.649 40.4539 149.713 40.3755 150.397C39.0114 160.209 31.4341 167.497 20.7593 170.024C10.8073 172.381 1.00801 169.494 -4.92395 162.097C-7.15159 162.697 -9.70832 162.345 -11.8641 161.285C-14.1361 160.169 -15.8291 158.39 -16.6326 156.277C-17.2582 154.632 -17.4698 153.002 -17.3002 151.486L-19.8339 150.309C-31.4209 144.953 -10.5054 104.512 1.15473 110.131C1.21353 110.159 5.21324 112.383 5.22279 112.389C9.27808 109.25 20.5415 102.325 22.8292 110.807C23.5893 113.624 22.6505 117.398 20.5342 121.161C24.7297 123.342 25.0152 127.961 26.6287 131.837L27.8847 131.844C30.2809 131.863 32.0882 132.262 33.0801 132.859C34.0717 133.454 34.6654 134.13 35.0497 135.005C35.3779 135.707 35.7087 137.012 35.1145 138.73C35.7201 139.573 36.2942 140.422 36.8264 141.314ZM-5.70396 159.856C-5.37105 159.774 -5.04832 159.665 -4.74086 159.524C-1.43559 158.014 -1.52405 154.061 -3.07042 150.569C-4.81715 146.627 -8.0255 145.932 -9.96687 146.342C-10.5064 146.457 -10.9882 146.637 -11.3743 146.827C-14.6083 148.421 -15.7684 151.807 -14.39 155.431C-13.143 158.711 -8.92623 160.628 -5.70396 159.856ZM-16.8069 149.366C-16.1009 147.416 -14.5459 145.725 -12.529 144.747C-11.7441 136.85 -8.99505 129.032 -4.23184 122.882C-0.772263 118.038 3.31272 114.133 3.31272 114.133C3.31272 114.133 -0.0560607 111.873 -0.893133 111.864C-6.02526 111.871 -14.4834 121.685 -18.5958 132.76C-20.2595 137.24 -22.2993 144.933 -19.5511 147.872C-19.212 148.236 -17.6424 148.985 -16.8069 149.366ZM24.9528 149.876C24.9809 149.951 24.9544 150.043 24.8929 150.09C24.8929 150.09 21.5176 152.889 14.9037 152.66C15.6146 154.434 18.0231 154.533 19.643 154.368C27.5635 153.625 33.5002 147.451 34.8058 145.947C35.03 145.689 34.8803 146.239 34.8495 146.322C33.5639 149.33 29.0882 153.613 22.2621 155.441C19.2848 156.237 16.0319 156 14.5135 154.702C12.1574 152.688 12.8025 148.654 15.7277 148.272C20.6449 147.525 25.4326 145.813 29.31 142.604C32.6907 139.805 33.626 137.473 32.9854 135.958C31.9924 133.61 28.2746 134.197 26.2881 134.094C25.4234 134.048 24.9753 133.945 24.4902 132.493C24.2785 131.858 23.5626 129.64 23.2718 128.72C22.7626 127.112 21.9671 124.938 20.3217 124.394C19.8926 124.252 19.4565 124.245 19.0239 124.337C18.6795 124.412 18.4904 124.513 18.3887 124.567C18.3658 124.579 18.3474 124.589 18.3326 124.595C17.6112 124.925 17.2506 125.431 16.8254 126.028C16.8009 126.062 16.7762 126.097 16.7512 126.132C15.3907 128.035 13.9803 128.665 12.3222 129.035C11.8059 129.15 11.266 129.24 10.6964 129.335C10.1726 129.422 9.6237 129.514 9.04512 129.633L8.33867 129.78C5.55598 130.376 3.23873 133.505 3.63983 136.96C4.08702 140.816 6.76942 142.533 8.5139 143.649C8.94496 143.925 9.31875 144.164 9.5874 144.39C9.75689 144.524 9.96482 144.722 10.0251 144.946C10.0969 145.215 9.97769 145.474 9.8539 145.702C7.81487 149.295 8.12937 154.052 10.1937 157.534C10.4516 157.968 10.7394 158.373 11.0521 158.75C15.0588 163.798 23.4542 164.4 30.31 159.97C35.1148 156.865 38.6635 151.522 38.0951 145.616C37.9256 144.082 37.4423 143.602 36.9183 143.448C36.3639 143.287 35.8196 143.54 35.8196 143.54C35.8196 143.54 35.0876 141.85 33.9217 140.448C32.1902 142.739 29.6951 144.69 27.7139 145.872C24.5394 147.765 20.9304 149.138 17.2578 149.631C15.7682 149.83 14.7674 149.965 14.709 151.405C19.9023 151.848 24.7174 149.773 24.7174 149.773C24.8116 149.737 24.9171 149.783 24.9528 149.876ZM2.39325 120.324C0.154276 122.326 -2.11312 125.43 -3.74312 128.738C-3.80054 128.855 -3.64196 128.954 -3.55968 128.853C-1.9218 126.853 0.496112 124.754 3.90369 122.901C7.72084 120.826 11.7595 120.186 14.3043 120.085C14.4324 120.08 14.453 119.855 14.3301 119.824C12.5095 119.371 9.91633 119.427 8.18673 119.877C8.1021 119.898 8.02833 119.814 8.06069 119.734C8.25272 119.258 8.55681 118.757 8.85463 118.373C8.92036 118.287 8.83443 118.167 8.7304 118.202C6.61784 118.907 2.31228 122.458 2.30806 122.372C2.27415 121.742 2.4595 120.848 2.56608 120.426C2.59185 120.326 2.47061 120.256 2.39325 120.324Z"
            fill="#534B53" />
        <rect x="65.4414" y="62.5215" width="120" height="120" rx="60"
            transform="rotate(-15 65.4414 62.5215)" fill="#151415" />
        <path d="M134.149 75.1695L145.292 116.753L168.55 65.9519L134.149 75.1695Z" fill="#534B53" />
        <path
            d="M116.62 99.7197C126.03 97.1982 131.279 85.6264 128.857 76.5876L94.4564 85.8052C96.8783 94.844 107.21 102.241 116.62 99.7197Z"
            fill="#534B53" />
        <path
            d="M149.748 133.386C147.326 124.347 152.575 112.775 161.985 110.254C171.396 107.732 181.727 115.129 184.149 124.168L149.748 133.386Z"
            fill="#534B53" />
        <path d="M144.456 134.804L133.314 93.2208L110.055 144.022L144.456 134.804Z" fill="#534B53" />
        <rect x="196.807" y="27.3218" width="120" height="120" rx="60"
            transform="rotate(-15 196.807 27.3218)" fill="#151415" />
        <path
            d="M288.47 66.8531C281.011 68.8519 276.608 76.6046 278.635 84.17C280.662 91.7358 288.352 96.2489 295.811 94.2501C303.27 92.2516 307.673 84.4983 305.646 76.9324C303.619 69.3671 295.929 64.8546 288.47 66.8531ZM253.382 76.2561C245.923 78.2546 241.52 86.0066 243.547 93.5726C245.574 101.138 253.264 105.651 260.723 103.652C268.182 101.653 272.586 93.9 270.559 86.3349C268.531 78.7688 260.841 74.2574 253.382 76.2561ZM279.843 50.8123C281.87 58.3777 277.468 66.1318 270.009 68.1304C262.55 70.1291 254.86 65.6151 252.833 58.0498C250.806 50.4849 255.208 42.7316 262.668 40.7329C270.126 38.7344 277.816 43.2475 279.843 50.8123Z"
            fill="#534B53" />
        <rect x="328.173" y="-7.87744" width="120" height="120" rx="60"
            transform="rotate(-15 328.173 -7.87744)" fill="#151415" />
        <path
            d="M369.683 21.3759C367.27 22.0226 365.904 24.7535 366.634 27.4754L373.039 51.3787C374.898 58.3197 381.395 62.6096 387.549 60.9606L413.37 53.7781C415.783 53.1314 417.148 50.4006 416.419 47.6786L409.948 23.5289C408.088 16.5879 400.792 13.0404 394.638 14.6894L369.683 21.3759Z"
            fill="#534B53" />
        <path
            d="M415.141 19.2812C413.993 21.2437 413.695 23.7122 414.323 26.0544L417.003 36.0568C417.63 38.399 419.123 40.3876 421.098 41.5132L433.109 47.468C435.61 48.8932 438.284 46.4794 437.489 43.5138L428.462 9.82367C427.667 6.85802 424.145 6.10464 422.691 8.58949L415.141 19.2812Z"
            fill="#534B53" />
        <rect x="459.539" y="-43.0767" width="120" height="120" rx="60"
            transform="rotate(-15 459.539 -43.0767)" fill="#151415" />
        <path
            d="M513.345 6.85274C510.665 7.57063 509.076 10.3245 509.793 13.0037C510.511 15.6829 513.265 17.2728 515.945 16.5549C518.624 15.8369 520.214 13.0828 519.496 10.4034L518.197 5.55267L513.345 6.85274ZM526.929 3.21275C524.25 3.9307 522.66 6.6848 523.378 9.36422L527.017 22.9476C527.735 25.627 530.489 27.2171 533.169 26.4992C535.848 25.7812 537.438 23.0271 536.72 20.3477L533.081 6.7643C532.363 4.08488 529.609 2.4948 526.929 3.21275Z"
            fill="#534B53" />
        <path
            d="M540.602 19.3086C541.32 21.9877 544.074 23.5777 546.753 22.8598C549.432 22.1419 551.022 19.3878 550.304 16.7087C549.586 14.0292 546.832 12.4389 544.153 13.1569L539.302 14.4566L540.602 19.3086ZM536.962 5.72391C537.68 8.40332 540.434 9.99341 543.114 9.27546L556.697 5.6358C559.377 4.91785 560.967 2.16374 560.249 -0.515674C559.531 -3.19509 556.777 -4.78518 554.097 -4.06723L540.514 -0.427566C537.834 0.290382 536.244 3.04449 536.962 5.72391Z"
            fill="#534B53" />
        <path
            d="M525.8 -20.4048C525.082 -23.0839 522.328 -24.6739 519.649 -23.956C516.97 -23.2381 515.38 -20.484 516.098 -17.8048C516.816 -15.1254 519.57 -13.5351 522.25 -14.2531L527.1 -15.5528L525.8 -20.4048ZM529.44 -6.8201C528.722 -9.49951 525.968 -11.0896 523.289 -10.3717L509.705 -6.73199C507.026 -6.01404 505.436 -3.25993 506.154 -0.580517C506.872 2.0989 509.626 3.68898 512.305 2.97104L525.889 -0.668626C528.568 -1.38657 530.158 -4.14068 529.44 -6.8201Z"
            fill="#534B53" />
        <rect x="590.905" y="-78.2764" width="120" height="120" rx="60"
            transform="rotate(-15 590.905 -78.2764)" fill="#151415" />
        <path fill-rule="evenodd" clip-rule="evenodd"
            d="M679.569 -73.0463L632.965 -60.5588C628.676 -59.4093 626.129 -55.0022 627.278 -50.7151L639.758 -4.14059C640.906 0.146476 645.315 2.69002 649.605 1.54058L696.209 -10.947C700.478 -12.114 703.002 -16.5084 701.857 -20.7801L689.377 -67.3546C688.233 -71.6263 683.85 -74.17 679.569 -73.0463ZM640.215 -54.1817L650.565 -56.9549C653.423 -57.7207 656.361 -56.0246 657.127 -53.1666L666.833 -16.942C667.599 -14.0839 665.903 -11.1462 663.045 -10.3804L652.695 -7.60715C649.837 -6.84134 646.899 -8.53743 646.133 -11.3955L636.427 -47.6201C635.661 -50.4781 637.357 -53.4159 640.215 -54.1817ZM676.44 -63.888L666.09 -61.1148C663.232 -60.349 661.536 -57.4113 662.302 -54.5532L667.155 -36.4409C667.921 -33.5829 670.858 -31.8868 673.716 -32.6526L684.066 -35.4258C686.924 -36.1916 688.62 -39.1293 687.855 -41.9874L683.002 -60.0997C682.236 -62.9578 679.298 -64.6538 676.44 -63.888Z"
            fill="#534B53" />
        <rect x="722.271" y="-113.476" width="120" height="120" rx="60"
            transform="rotate(-15 722.271 -113.476)" fill="#151415" />
        <rect x="-104.135" y="248.757" width="120" height="120" rx="60"
            transform="rotate(-15 -104.135 248.757)" fill="#151415" />
        <path d="M-35.4276 261.405L-24.2854 302.988L-1.02701 252.188L-35.4276 261.405Z"
            fill="#534B53" />
        <path
            d="M-52.9569 285.956C-43.5466 283.434 -38.298 271.862 -40.7199 262.823L-75.1205 272.041C-72.6986 281.08 -62.3673 288.477 -52.9569 285.956Z"
            fill="#534B53" />
        <path
            d="M-19.8285 319.622C-22.2505 310.583 -17.0019 299.011 -7.59158 296.489C1.81877 293.968 12.1501 301.365 14.572 310.404L-19.8285 319.622Z"
            fill="#534B53" />
        <path d="M-25.1209 321.04L-36.2631 279.457L-59.5216 330.257L-25.1209 321.04Z" fill="#534B53" />
        <rect x="27.2303" y="213.558" width="120" height="120" rx="60"
            transform="rotate(-15 27.2303 213.558)" fill="#151415" />
        <path
            d="M118.894 253.089C111.434 255.088 107.031 262.84 109.058 270.406C111.085 277.972 118.775 282.485 126.235 280.486C133.693 278.487 138.096 270.734 136.069 263.168C134.042 255.603 126.352 251.09 118.894 253.089ZM83.8051 262.492C76.3465 264.49 71.9426 272.242 73.97 279.808C75.997 287.374 83.6872 291.886 91.1459 289.888C98.605 287.889 103.009 280.136 100.982 272.571C98.9543 265.005 91.2642 260.493 83.8051 262.492ZM110.266 237.048C112.293 244.614 107.891 252.368 100.432 254.366C92.9727 256.365 85.2827 251.851 83.2556 244.286C81.2286 236.721 85.6316 228.967 93.0909 226.969C100.55 224.97 108.239 229.483 110.266 237.048Z"
            fill="#534B53" />
        <rect x="158.596" y="178.358" width="120" height="120" rx="60"
            transform="rotate(-15 158.596 178.358)" fill="#151415" />
        <path
            d="M200.106 207.612C197.693 208.258 196.327 210.989 197.057 213.711L203.462 237.615C205.322 244.556 211.818 248.845 217.973 247.196L243.793 240.014C246.206 239.367 247.572 236.636 246.842 233.914L240.371 209.765C238.511 202.824 231.215 199.276 225.061 200.925L200.106 207.612Z"
            fill="#534B53" />
        <path
            d="M245.564 205.517C244.416 207.48 244.118 209.948 244.746 212.29L247.426 222.293C248.053 224.635 249.546 226.623 251.521 227.749L263.532 233.704C266.033 235.129 268.707 232.715 267.912 229.75L258.885 196.06C258.09 193.094 254.568 192.34 253.114 194.825L245.564 205.517Z"
            fill="#534B53" />
        <rect x="289.962" y="143.159" width="120" height="120" rx="60"
            transform="rotate(-15 289.962 143.159)" fill="#151415" />
        <path
            d="M383.481 178.287C386.16 177.569 387.75 174.815 387.032 172.136C386.314 169.457 383.56 167.867 380.881 168.585C378.202 169.303 376.611 172.057 377.329 174.736L378.629 179.587L383.481 178.287ZM369.896 181.927C372.576 181.209 374.166 178.455 373.448 175.775L369.808 162.192C369.09 159.513 366.336 157.923 363.657 158.64C360.977 159.358 359.387 162.113 360.105 164.792L363.745 178.375C364.463 181.055 367.217 182.645 369.896 181.927Z"
            fill="#534B53" />
        <path
            d="M343.768 193.089C341.089 193.806 339.499 196.56 340.216 199.24C340.934 201.919 343.688 203.509 346.368 202.791C349.047 202.073 350.637 199.319 349.919 196.639L348.62 191.789L343.768 193.089ZM357.352 189.449C354.673 190.167 353.083 192.921 353.801 195.6L357.44 209.183C358.158 211.863 360.913 213.453 363.592 212.735C366.271 212.017 367.861 209.263 367.144 206.584L363.504 193C362.786 190.321 360.032 188.731 357.352 189.449Z"
            fill="#534B53" />
        <path
            d="M371.025 205.544C371.743 208.224 374.497 209.814 377.176 209.096C379.855 208.378 381.445 205.624 380.727 202.944C380.009 200.265 377.255 198.675 374.576 199.393L369.725 200.692L371.025 205.544ZM367.385 191.96C368.103 194.639 370.857 196.229 373.537 195.511L387.12 191.872C389.8 191.154 391.39 188.4 390.672 185.72C389.954 183.041 387.2 181.451 384.52 182.169L370.937 185.808C368.257 186.526 366.667 189.28 367.385 191.96Z"
            fill="#534B53" />
        <path
            d="M356.223 165.831C355.505 163.152 352.752 161.562 350.072 162.28C347.393 162.998 345.803 165.752 346.521 168.431C347.239 171.11 349.993 172.701 352.673 171.983L357.523 170.683L356.223 165.831ZM359.863 179.416C359.145 176.736 356.391 175.146 353.712 175.864L340.128 179.504C337.449 180.222 335.859 182.976 336.577 185.655C337.295 188.335 340.049 189.925 342.728 189.207L356.312 185.567C358.991 184.849 360.581 182.095 359.863 179.416Z"
            fill="#534B53" />
        <rect x="421.328" y="107.959" width="120" height="120" rx="60"
            transform="rotate(-15 421.328 107.959)" fill="#151415" />
        <path fill-rule="evenodd" clip-rule="evenodd"
            d="M509.992 113.19L463.388 125.677C459.099 126.826 456.552 131.234 457.701 135.521L470.181 182.095C471.329 186.382 475.738 188.926 480.028 187.776L526.632 175.289C530.9 174.122 533.425 169.727 532.28 165.456L519.8 118.881C518.656 114.61 514.273 112.066 509.992 113.19ZM470.638 132.054L480.988 129.281C483.846 128.515 486.784 130.211 487.55 133.069L497.256 169.294C498.022 172.152 496.326 175.09 493.468 175.855L483.118 178.629C480.26 179.395 477.322 177.698 476.556 174.84L466.85 138.616C466.084 135.758 467.78 132.82 470.638 132.054ZM506.863 122.348L496.513 125.121C493.655 125.887 491.959 128.825 492.725 131.683L497.578 149.795C498.344 152.653 501.281 154.349 504.139 153.583L514.489 150.81C517.347 150.044 519.043 147.106 518.278 144.248L513.424 126.136C512.659 123.278 509.721 121.582 506.863 122.348Z"
            fill="#534B53" />
        <rect x="552.694" y="72.7603" width="120" height="120" rx="60"
            transform="rotate(-15 552.694 72.7603)" fill="#151415" />
        <path fill-rule="evenodd" clip-rule="evenodd"
            d="M657.143 105.989C661.593 122.596 651.299 139.783 634.151 144.378C630.987 145.226 627.811 145.586 624.707 145.504L618.755 150.303C616.852 151.837 614.002 150.891 613.365 148.513L611.734 142.428C603.747 138.661 597.464 131.661 595.044 122.628C590.594 106.022 600.888 88.8342 618.037 84.2394C635.185 79.6445 652.693 89.3821 657.143 105.989ZM611.241 124.635L616.946 109.909C617.548 108.354 619.355 107.568 620.929 108.175L629.077 111.321C630.028 111.688 631.128 111.382 631.751 110.576L638.221 102.21C639.275 100.848 641.453 101.978 640.828 103.563L634.802 118.844C634.192 120.389 632.392 121.166 630.824 120.561L622.65 117.405C621.704 117.04 620.609 117.342 619.984 118.14L613.846 125.986C612.791 127.335 610.63 126.214 611.241 124.635Z"
            fill="#534B53" />
        <rect x="684.06" y="37.561" width="120" height="120" rx="60"
            transform="rotate(-15 684.06 37.561)" fill="#151415" />
        <path
            d="M744.701 77.3997L744.572 76.916C744.243 75.6901 744.953 74.4102 746.196 73.9866L755.248 70.9013L773.026 86.2572L768.611 69.782L765.213 70.2238L765.151 69.9941C764.819 68.7537 765.549 67.4611 766.813 67.0521L775.085 64.3751L775.408 65.5821C775.56 66.1487 775.269 66.7462 774.717 66.9986L772.791 67.8808L779.94 94.5618L777.64 96.1116C775.719 97.4063 773.154 97.2586 771.453 95.7552L754.074 80.3967L758.85 98.2204L762.854 97.9288L762.896 98.2963C763.026 99.4476 762.295 100.541 761.153 100.902L751.792 103.862C751.348 102.705 751.955 101.402 753.15 100.943L754.362 100.478L747.994 76.7128L744.701 77.3997Z"
            fill="#534B53" />
        <path fill-rule="evenodd" clip-rule="evenodd"
            d="M760.377 46.1183L723.091 58.8882C720.857 59.6532 719.584 61.9547 720.175 64.1589L730.073 101.1C730.628 103.171 731.88 104.992 733.632 106.277L744.555 114.284C746.321 115.579 748.648 115.929 750.768 115.218L792.227 101.328C794.352 100.617 795.569 98.4335 795.009 96.3412L783.755 54.3427C783.408 53.0482 782.43 52.0104 781.133 51.5624L765.372 46.1159C763.765 45.5608 762.002 45.5617 760.377 46.1183ZM726.251 63.1484C725.618 62.8988 725.651 62.0167 726.302 61.7913L761.576 49.5745C762.7 49.1853 763.924 49.1957 765.026 49.604L773.612 52.783C773.938 52.9037 773.922 53.3572 773.588 53.4665L736.055 65.7435C734.919 66.1151 733.691 66.0813 732.593 65.6483L726.251 63.1484ZM736.009 72.7161C735.677 71.4787 736.403 70.1888 737.663 69.7766L777.345 56.7933C778.572 56.3917 779.878 57.0687 780.201 58.2747L789.945 94.641C790.276 95.8761 789.554 97.164 788.297 97.5785L748.893 110.577C747.527 111.028 746.073 110.275 745.713 108.933L736.009 72.7161Z"
            fill="#534B53" />
        <rect x="815.426" y="2.36133" width="120" height="120" rx="60"
            transform="rotate(-15 815.426 2.36133)" fill="#151415" />
        <path fill-rule="evenodd" clip-rule="evenodd"
            d="M868.57 17.1089C871.988 16.193 875.423 16.1903 878.589 16.9465C879.489 16.6093 880.415 16.3123 881.363 16.0583C897.286 11.7916 913.653 21.2412 917.92 37.1646C918.301 38.587 918.573 40.0128 918.74 41.4333C921.054 43.6696 922.81 46.5428 923.703 49.8774C926.329 59.6764 920.514 69.7486 910.715 72.3742C907.38 73.2677 904.014 73.1837 900.921 72.2979C899.607 72.8632 898.236 73.3408 896.814 73.722C880.89 77.9886 864.523 68.539 860.256 52.6156C859.856 51.1229 859.577 49.6264 859.412 48.1363C857.089 45.9507 855.344 43.1533 854.473 39.9028C851.847 30.1038 858.159 19.8986 868.57 17.1089ZM895.842 31.9875C896.612 28.6118 889.768 28.0685 885.081 29.3244C880.394 30.5803 874.936 35.212 876.323 40.3869C877.71 45.5619 882.111 46.3635 886.512 47.1651C887.392 47.3254 888.358 47.4134 889.323 47.5013C892.22 47.7652 895.116 48.029 895.711 50.2468C896.503 53.2039 893.576 54.7805 890.452 55.6178C889.333 55.9174 887.903 55.7324 886.486 55.5492C883.945 55.2205 881.448 54.8975 880.879 57.3903C880.109 60.7661 885.54 62.4803 891.838 60.7927C898.869 58.9088 903.545 54.4865 901.96 48.5723C900.475 43.0291 893.683 42.388 889.295 41.9737C889.001 41.9459 888.718 41.9192 888.448 41.8921C884.146 41.4602 882.969 40.1909 882.573 38.7124C882.176 37.2338 883.343 35.3366 886.467 34.4993C887.509 34.2203 888.781 34.3608 890.053 34.5013C892.596 34.7824 895.14 35.0635 895.842 31.9875Z"
            fill="#534B53" />
        <rect x="946.792" y="-32.8379" width="120" height="120" rx="60"
            transform="rotate(-15 946.792 -32.8379)" fill="#151415" />
        <path
            d="M1017.8 -0.254204L1003.41 -14.8768C1003.64 -15.294 1003.96 -15.6106 1004.29 -15.8562C1001.67 -14.1361 1001.21 -10.547 1001.21 -10.547L991.801 25.7219C991.814 26.7764 991.984 27.6864 992.225 28.4627L1011.7 23.2434L1017.8 -0.254204Z"
            fill="#534B53" />
        <path
            d="M1017.8 -0.253871L1034.82 17.0497L1054.3 11.8304C1054.12 11.0372 1053.81 10.1646 1053.3 9.24473L1027.01 -17.4602C1027.01 -17.4602 1024.82 -20.3401 1021.69 -20.5172C1022.1 -20.4707 1022.53 -20.355 1022.94 -20.1117L1017.8 -0.253871Z"
            fill="#534B53" />
        <path
            d="M1017.8 -0.252026L1022.94 -20.1098C1022.53 -20.3532 1022.1 -20.4688 1021.69 -20.5154C1021.23 -20.5399 1020.74 -20.5098 1020.24 -20.4019L1019.73 -20.2636L1006.12 -16.6171L1005.6 -16.4788C1005.12 -16.3257 1004.68 -16.11 1004.29 -15.854C1003.96 -15.6093 1003.64 -15.2918 1003.41 -14.8746L1017.8 -0.252026Z"
            fill="#3C363C" />
        <path
            d="M1011.71 23.2432L1006.62 42.8758C1006.62 42.8758 1006.25 42.8055 1005.73 42.5992C1007.38 43.2866 1008.78 43.1533 1008.78 43.1533L1046.71 32.9904C1048.8 32.4297 1049.02 31.5139 1049.02 31.5139C1049.03 31.5084 1049.03 31.504 1049.03 31.4985L1034.82 17.0501L1011.71 23.2432Z"
            fill="#534B53" />
        <path
            d="M1011.71 23.2431L992.229 28.4624C992.947 30.7515 994.314 31.8353 994.314 31.8353L995.387 32.9103C995.459 32.9709 995.502 33.0051 995.502 33.0051L997.845 35.3762L1003.09 40.6459C1003.26 40.87 1003.45 41.0681 1003.64 41.2536C1003.71 41.3151 1003.77 41.3847 1003.84 41.4417C1003.86 41.4592 1003.88 41.4768 1003.9 41.4944C1004.51 42.0007 1005.14 42.3509 1005.74 42.5982C1006.26 42.808 1006.62 42.8748 1006.62 42.8748L1011.71 23.2431Z"
            fill="#3C363C" />
        <path
            d="M1034.82 17.0503L1054.3 11.831C1054.82 14.1724 1054.18 15.7945 1054.18 15.7945L1053.79 17.262C1053.76 17.3506 1053.74 17.4016 1053.74 17.4016L1052.89 20.6269L1050.98 27.8142C1050.94 28.0944 1050.88 28.3579 1050.81 28.6126C1050.79 28.7003 1050.76 28.7941 1050.73 28.8792C1050.72 28.9042 1050.71 28.9292 1050.7 28.9543C1050.43 29.698 1050.06 30.3136 1049.67 30.8263C1049.32 31.2698 1049.04 31.5084 1049.04 31.5084L1034.82 17.0503Z"
            fill="#3C363C" />
        <rect x="1078.16" y="-68.0376" width="120" height="120" rx="60"
            transform="rotate(-15 1078.16 -68.0376)" fill="#151415" />
        <path fill-rule="evenodd" clip-rule="evenodd"
            d="M1121.97 -12.7133C1122.92 -9.15544 1125.07 -6.231 1127.89 -4.24104L1127.89 -4.24083C1131.57 -1.63492 1136.39 -0.631461 1141.15 -1.90642C1149.36 -4.10737 1170.83 -9.85969 1176.41 -11.3714C1180.11 -12.3459 1182.82 -15.3164 1184.23 -18.7232L1184.16 -18.7411L1184.16 -18.7413L1184.23 -18.7233C1185.24 -21.1531 1185.49 -23.8975 1184.8 -26.613C1184.79 -26.6638 1184.78 -26.7146 1184.76 -26.7653C1182.95 -33.5208 1175.92 -37.5121 1169.02 -35.7187C1167.42 -38.5758 1165.13 -40.9293 1162.42 -42.628C1158.81 -44.8931 1154.45 -45.9943 1149.97 -45.5736C1148.86 -45.4685 1147.73 -45.2682 1146.61 -44.9672L1146.61 -44.9672C1145.56 -44.686 1144.55 -44.3276 1143.59 -43.8998C1142.16 -43.2638 1140.83 -42.4745 1139.63 -41.5583C1136.26 -39.0042 1133.82 -35.4635 1132.63 -31.5055L1132.63 -31.5055C1132.35 -31.4189 1132.07 -31.3251 1131.79 -31.2243L1131.71 -31.1949L1131.71 -31.195C1124.21 -28.4024 1119.9 -20.4401 1121.97 -12.7137C1121.97 -12.7136 1121.97 -12.7136 1121.97 -12.7135C1121.97 -12.7135 1121.97 -12.7134 1121.97 -12.7133Z"
            fill="#534B53" />
        <rect x="-43.1685" y="-49.1743" width="120" height="120" rx="60"
            transform="rotate(-15 -43.1685 -49.1743)" fill="#151415" />
        <path
            d="M48.4947 -9.64297C41.0352 -7.64418 36.6323 0.108547 38.6594 7.67391C40.6867 15.2397 48.3762 19.7528 55.8357 17.754C63.2944 15.7555 67.6976 8.00219 65.6703 0.43635C63.6432 -7.12901 55.9534 -11.6415 48.4947 -9.64297ZM13.4063 -0.24003C5.94767 1.75851 1.54384 9.51046 3.57116 17.0765C5.59823 24.6417 13.2884 29.1546 20.7471 27.156C28.2062 25.1574 32.6099 17.4039 30.5828 9.83879C28.5555 2.27272 20.8654 -2.23869 13.4063 -0.24003ZM39.8673 -25.6838C41.8944 -18.1184 37.4919 -10.3642 30.0333 -8.36571C22.5739 -6.36698 14.8839 -10.881 12.8568 -18.4463C10.8298 -26.0112 15.2328 -33.7645 22.6921 -35.7632C30.1508 -37.7617 37.8403 -33.2486 39.8673 -25.6838Z"
            fill="#534B53" />
        <rect x="88.1975" y="-84.3735" width="120" height="120" rx="60"
            transform="rotate(-15 88.1975 -84.3735)" fill="#151415" />
        <rect x="-33.7367" y="511.489" width="120" height="120" rx="60"
            transform="rotate(-15 -33.7367 511.489)" fill="#151415" />
        <path d="M34.9712 524.137L46.1134 565.72L69.3718 514.92L34.9712 524.137Z" fill="#534B53" />
        <path
            d="M17.4419 548.688C26.8522 546.166 32.1008 534.594 29.6789 525.555L-4.72172 534.773C-2.29978 543.812 8.03155 551.209 17.4419 548.688Z"
            fill="#534B53" />
        <path
            d="M50.5703 582.354C48.1483 573.315 53.3969 561.743 62.8072 559.221C72.2176 556.7 82.5489 564.097 84.9708 573.136L50.5703 582.354Z"
            fill="#534B53" />
        <path d="M45.2779 583.772L34.1357 542.189L10.8772 592.989L45.2779 583.772Z" fill="#534B53" />
        <rect x="97.6292" y="476.29" width="120" height="120" rx="60"
            transform="rotate(-15 97.6292 476.29)" fill="#151415" />
        <path
            d="M189.292 515.821C181.833 517.82 177.43 525.572 179.457 533.138C181.484 540.704 189.174 545.217 196.633 543.218C204.092 541.219 208.495 533.466 206.468 525.9C204.441 518.335 196.751 513.822 189.292 515.821ZM154.204 525.224C146.745 527.222 142.341 534.974 144.369 542.54C146.396 550.106 154.086 554.618 161.545 552.62C169.004 550.621 173.407 542.868 171.38 535.303C169.353 527.737 161.663 523.225 154.204 525.224ZM180.665 499.78C182.692 507.345 178.29 515.1 170.831 517.098C163.372 519.097 155.682 514.583 153.654 507.018C151.627 499.453 156.03 491.699 163.49 489.701C170.948 487.702 178.638 492.215 180.665 499.78Z"
            fill="#534B53" />
        <rect x="228.995" y="441.09" width="120" height="120" rx="60"
            transform="rotate(-15 228.995 441.09)" fill="#151415" />
        <path
            d="M270.505 470.344C268.092 470.99 266.726 473.721 267.456 476.443L273.86 500.347C275.72 507.287 282.217 511.577 288.371 509.928L314.192 502.746C316.605 502.099 317.97 499.368 317.241 496.646L310.77 472.497C308.91 465.556 301.614 462.008 295.46 463.657L270.505 470.344Z"
            fill="#534B53" />
        <path
            d="M315.963 468.249C314.815 470.212 314.517 472.68 315.144 475.022L317.825 485.025C318.452 487.367 319.945 489.355 321.92 490.481L333.931 496.436C336.432 497.861 339.106 495.447 338.311 492.482L329.284 458.791C328.489 455.826 324.966 455.072 323.513 457.557L315.963 468.249Z"
            fill="#534B53" />
        <rect x="360.361" y="405.891" width="120" height="120" rx="60"
            transform="rotate(-15 360.361 405.891)" fill="#151415" />
        <path
            d="M453.88 441.019C456.559 440.301 458.149 437.547 457.431 434.868C456.713 432.189 453.959 430.599 451.28 431.317C448.601 432.035 447.01 434.789 447.728 437.468L449.028 442.319L453.88 441.019ZM440.295 444.659C442.975 443.941 444.565 441.187 443.847 438.507L440.207 424.924C439.489 422.245 436.735 420.654 434.056 421.372C431.376 422.09 429.786 424.844 430.504 427.524L434.144 441.107C434.862 443.787 437.616 445.377 440.295 444.659Z"
            fill="#534B53" />
        <path
            d="M414.167 455.821C411.487 456.538 409.897 459.292 410.615 461.971C411.333 464.651 414.087 466.241 416.766 465.523C419.446 464.805 421.036 462.051 420.318 459.371L419.018 454.52L414.167 455.821ZM427.751 452.181C425.072 452.898 423.482 455.653 424.2 458.332L427.839 471.915C428.557 474.595 431.311 476.185 433.991 475.467C436.67 474.749 438.26 471.995 437.542 469.315L433.903 455.732C433.185 453.053 430.431 451.463 427.751 452.181Z"
            fill="#534B53" />
        <path
            d="M441.424 468.276C442.142 470.956 444.896 472.545 447.575 471.828C450.254 471.11 451.844 468.356 451.126 465.676C450.408 462.997 447.654 461.407 444.975 462.125L440.124 463.424L441.424 468.276ZM437.784 454.692C438.502 457.371 441.256 458.961 443.936 458.243L457.519 454.604C460.198 453.886 461.788 451.132 461.07 448.452C460.353 445.773 457.598 444.183 454.919 444.901L441.336 448.54C438.656 449.258 437.066 452.012 437.784 454.692Z"
            fill="#534B53" />
        <path
            d="M426.622 428.563C425.904 425.884 423.15 424.294 420.471 425.012C417.792 425.73 416.202 428.484 416.92 431.163C417.638 433.842 420.392 435.433 423.072 434.715L427.922 433.415L426.622 428.563ZM430.262 442.148C429.544 439.468 426.79 437.878 424.111 438.596L410.527 442.236C407.848 442.954 406.258 445.708 406.976 448.387C407.694 451.067 410.448 452.657 413.127 451.939L426.711 448.299C429.39 447.581 430.98 444.827 430.262 442.148Z"
            fill="#534B53" />
        <rect x="491.727" y="370.691" width="120" height="120" rx="60"
            transform="rotate(-15 491.727 370.691)" fill="#151415" />
        <path fill-rule="evenodd" clip-rule="evenodd"
            d="M580.391 375.921L533.787 388.409C529.497 389.558 526.951 393.966 528.1 398.253L540.579 444.827C541.728 449.114 546.137 451.658 550.427 450.508L597.031 438.021C601.299 436.854 603.823 432.459 602.679 428.188L590.199 381.613C589.055 377.341 584.671 374.798 580.391 375.921ZM541.037 394.786L551.387 392.013C554.245 391.247 557.183 392.943 557.949 395.801L567.655 432.026C568.421 434.884 566.725 437.822 563.867 438.587L553.517 441.361C550.659 442.126 547.721 440.43 546.955 437.572L537.249 401.348C536.483 398.49 538.179 395.552 541.037 394.786ZM577.262 385.08L566.912 387.853C564.054 388.619 562.358 391.557 563.123 394.415L567.977 412.527C568.742 415.385 571.68 417.081 574.538 416.315L584.888 413.542C587.746 412.776 589.442 409.838 588.676 406.98L583.823 388.868C583.057 386.01 580.12 384.314 577.262 385.08Z"
            fill="#534B53" />
        <rect x="623.093" y="335.492" width="120" height="120" rx="60"
            transform="rotate(-15 623.093 335.492)" fill="#151415" />
        <path fill-rule="evenodd" clip-rule="evenodd"
            d="M727.542 368.721C731.992 385.328 721.698 402.515 704.549 407.11C701.386 407.958 698.21 408.317 695.106 408.236L689.154 413.035C687.25 414.569 684.401 413.623 683.763 411.245L682.133 405.16C674.146 401.393 667.863 394.392 665.443 385.36C660.993 368.753 671.287 351.566 688.435 346.971C705.584 342.376 723.092 352.114 727.542 368.721ZM681.64 387.367L687.344 372.641C687.947 371.086 689.754 370.299 691.328 370.907L699.476 374.053C700.427 374.42 701.527 374.114 702.15 373.308L708.62 364.942C709.673 363.58 711.851 364.71 711.226 366.295L705.2 381.576C704.591 383.121 702.791 383.898 701.223 383.293L693.049 380.137C692.102 379.772 691.008 380.074 690.383 380.872L684.245 388.718C683.19 390.067 681.028 388.946 681.64 387.367Z"
            fill="#534B53" />
        <rect x="754.459" y="300.293" width="120" height="120" rx="60"
            transform="rotate(-15 754.459 300.293)" fill="#151415" />
        <path
            d="M815.1 340.132L814.971 339.648C814.642 338.422 815.352 337.142 816.595 336.719L825.647 333.633L843.425 348.989L839.01 332.514L835.612 332.956L835.55 332.726C835.218 331.486 835.948 330.193 837.212 329.784L845.484 327.107L845.807 328.314C845.959 328.881 845.668 329.478 845.116 329.731L843.19 330.613L850.339 357.294L848.039 358.844C846.118 360.138 843.553 359.991 841.852 358.487L824.473 343.129L829.249 360.952L833.253 360.661L833.295 361.028C833.425 362.179 832.694 363.273 831.552 363.634L822.191 366.594C821.747 365.437 822.353 364.134 823.549 363.675L824.76 363.21L818.393 339.445L815.1 340.132Z"
            fill="#534B53" />
        <path fill-rule="evenodd" clip-rule="evenodd"
            d="M830.775 308.85L793.49 321.62C791.256 322.385 789.983 324.687 790.574 326.891L800.472 363.832C801.027 365.903 802.279 367.724 804.031 369.009L814.954 377.016C816.72 378.311 819.047 378.661 821.167 377.95L862.626 364.06C864.751 363.348 865.968 361.165 865.408 359.073L854.154 317.075C853.807 315.78 852.829 314.742 851.532 314.294L835.77 308.848C834.164 308.293 832.401 308.294 830.775 308.85ZM796.65 325.88C796.017 325.631 796.05 324.749 796.701 324.523L831.975 312.306C833.099 311.917 834.323 311.928 835.425 312.336L844.011 315.515C844.337 315.636 844.321 316.089 843.987 316.198L806.454 328.475C805.318 328.847 804.09 328.813 802.992 328.38L796.65 325.88ZM806.408 335.448C806.076 334.211 806.802 332.921 808.062 332.509L847.743 319.525C848.971 319.124 850.277 319.801 850.6 321.007L860.344 357.373C860.675 358.608 859.952 359.896 858.696 360.31L819.292 373.309C817.926 373.759 816.472 373.007 816.112 371.665L806.408 335.448Z"
            fill="#534B53" />
        <rect x="885.825" y="265.093" width="120" height="120" rx="60"
            transform="rotate(-15 885.825 265.093)" fill="#151415" />
        <path fill-rule="evenodd" clip-rule="evenodd"
            d="M938.969 279.841C942.387 278.925 945.822 278.922 948.988 279.678C949.888 279.341 950.813 279.044 951.762 278.79C967.685 274.524 984.052 283.973 988.319 299.897C988.7 301.319 988.972 302.745 989.139 304.165C991.453 306.401 993.209 309.275 994.102 312.609C996.728 322.408 990.913 332.48 981.114 335.106C977.779 336 974.413 335.916 971.319 335.03C970.006 335.595 968.635 336.073 967.213 336.454C951.289 340.721 934.922 331.271 930.655 315.348C930.255 313.855 929.976 312.358 929.811 310.868C927.488 308.683 925.743 305.885 924.872 302.635C922.246 292.836 928.558 282.631 938.969 279.841ZM966.241 294.719C967.011 291.344 960.167 290.8 955.48 292.056C950.793 293.312 945.335 297.944 946.722 303.119C948.109 308.294 952.51 309.095 956.911 309.897C957.791 310.057 958.757 310.145 959.722 310.233C962.619 310.497 965.515 310.761 966.11 312.979C966.902 315.936 963.975 317.512 960.85 318.35C959.732 318.649 958.302 318.464 956.885 318.281C954.344 317.952 951.847 317.629 951.278 320.122C950.508 323.498 955.939 325.212 962.237 323.525C969.268 321.641 973.944 317.218 972.359 311.304C970.874 305.761 964.082 305.12 959.694 304.706C959.4 304.678 959.117 304.651 958.847 304.624C954.545 304.192 953.368 302.923 952.972 301.444C952.575 299.966 953.742 298.069 956.866 297.231C957.908 296.952 959.18 297.093 960.452 297.233C962.995 297.514 965.539 297.795 966.241 294.719Z"
            fill="#534B53" />
        <rect x="1017.19" y="229.894" width="120" height="120" rx="60"
            transform="rotate(-15 1017.19 229.894)" fill="#151415" />
        <path
            d="M1088.19 262.478L1073.81 247.855C1074.04 247.438 1074.36 247.121 1074.69 246.876C1072.06 248.596 1071.61 252.185 1071.61 252.185L1062.2 288.454C1062.21 289.508 1062.38 290.418 1062.62 291.195L1082.1 285.975L1088.19 262.478Z"
            fill="#534B53" />
        <path
            d="M1088.19 262.478L1105.22 279.782L1124.7 274.562C1124.52 273.769 1124.21 272.897 1123.69 271.977L1097.41 245.272C1097.41 245.272 1095.22 242.392 1092.09 242.215C1092.5 242.261 1092.93 242.377 1093.34 242.62L1088.19 262.478Z"
            fill="#534B53" />
        <path
            d="M1088.19 262.48L1093.34 242.622C1092.93 242.379 1092.5 242.263 1092.09 242.217C1091.62 242.192 1091.14 242.222 1090.64 242.33L1090.12 242.468L1076.52 246.115L1076 246.253C1075.51 246.406 1075.08 246.622 1074.69 246.878C1074.36 247.123 1074.04 247.44 1073.81 247.857L1088.19 262.48Z"
            fill="#3C363C" />
        <path
            d="M1082.11 285.975L1077.02 305.608C1077.02 305.608 1076.65 305.537 1076.13 305.331C1077.78 306.019 1079.18 305.885 1079.18 305.885L1117.1 295.722C1119.2 295.162 1119.42 294.246 1119.42 294.246C1119.42 294.24 1119.43 294.236 1119.43 294.23L1105.22 279.782L1082.11 285.975Z"
            fill="#534B53" />
        <path
            d="M1082.11 285.975L1062.63 291.194C1063.35 293.483 1064.71 294.567 1064.71 294.567L1065.79 295.642C1065.86 295.703 1065.9 295.737 1065.9 295.737L1068.24 298.108L1073.49 303.378C1073.66 303.602 1073.85 303.8 1074.04 303.986C1074.1 304.047 1074.17 304.117 1074.24 304.174C1074.26 304.191 1074.28 304.209 1074.3 304.226C1074.91 304.733 1075.54 305.083 1076.13 305.33C1076.66 305.54 1077.02 305.607 1077.02 305.607L1082.11 285.975Z"
            fill="#3C363C" />
        <path
            d="M1105.22 279.782L1124.7 274.563C1125.22 276.904 1124.58 278.526 1124.58 278.526L1124.19 279.994C1124.15 280.083 1124.13 280.134 1124.13 280.134L1123.29 283.359L1121.38 290.546C1121.34 290.826 1121.28 291.09 1121.21 291.345C1121.18 291.432 1121.16 291.526 1121.13 291.611C1121.12 291.636 1121.11 291.661 1121.1 291.686C1120.83 292.43 1120.46 293.046 1120.07 293.558C1119.72 294.002 1119.44 294.24 1119.44 294.24L1105.22 279.782Z"
            fill="#3C363C" />
        <rect x="1148.56" y="194.694" width="120" height="120" rx="60"
            transform="rotate(-15 1148.56 194.694)" fill="#151415" />
        <path fill-rule="evenodd" clip-rule="evenodd"
            d="M1192.37 250.019C1193.32 253.576 1195.47 256.501 1198.29 258.491L1198.29 258.491C1201.97 261.097 1206.79 262.1 1211.55 260.826C1219.76 258.625 1241.23 252.872 1246.81 251.361C1250.51 250.386 1253.22 247.416 1254.63 244.009L1254.56 243.991L1254.56 243.991L1254.63 244.009C1255.63 241.579 1255.89 238.834 1255.2 236.119C1255.19 236.068 1255.17 236.017 1255.16 235.967C1253.35 229.211 1246.32 225.22 1239.41 227.013C1237.82 224.156 1235.53 221.803 1232.82 220.104C1229.21 217.839 1224.85 216.738 1220.37 217.158C1219.25 217.263 1218.13 217.464 1217 217.765L1217 217.765C1215.96 218.046 1214.95 218.404 1213.99 218.832C1212.56 219.468 1211.23 220.257 1210.03 221.174C1206.66 223.728 1204.22 227.268 1203.03 231.226L1203.03 231.226C1202.74 231.313 1202.47 231.407 1202.19 231.508L1202.11 231.537L1202.11 231.537C1194.61 234.33 1190.3 242.292 1192.37 250.018C1192.37 250.018 1192.37 250.018 1192.37 250.018C1192.37 250.018 1192.37 250.019 1192.37 250.019Z"
            fill="#534B53" />
        <rect x="430.76" y="668.623" width="120" height="120" rx="60"
            transform="rotate(-15 430.76 668.623)" fill="#151415" />
        <rect x="562.125" y="633.423" width="120" height="120" rx="60"
            transform="rotate(-15 562.125 633.423)" fill="#151415" />
        <path fill-rule="evenodd" clip-rule="evenodd"
            d="M650.79 638.653L604.186 651.14C599.896 652.29 597.35 656.697 598.498 660.984L610.978 707.559C612.127 711.846 616.535 714.389 620.825 713.24L667.429 700.752C671.698 699.585 674.222 695.191 673.077 690.919L660.598 644.345C659.453 640.073 655.07 637.529 650.79 638.653ZM611.436 657.518L621.786 654.744C624.644 653.978 627.581 655.675 628.347 658.533L638.054 694.757C638.819 697.615 637.123 700.553 634.265 701.319L623.915 704.092C621.057 704.858 618.12 703.162 617.354 700.304L607.647 664.079C606.882 661.221 608.578 658.283 611.436 657.518ZM647.66 647.811L637.31 650.584C634.452 651.35 632.756 654.288 633.522 657.146L638.375 675.258C639.141 678.116 642.079 679.812 644.937 679.047L655.287 676.273C658.145 675.508 659.841 672.57 659.075 669.712L654.222 651.6C653.456 648.741 650.518 647.045 647.66 647.811Z"
            fill="#534B53" />
        <rect x="693.491" y="598.224" width="120" height="120" rx="60"
            transform="rotate(-15 693.491 598.224)" fill="#151415" />
        <path fill-rule="evenodd" clip-rule="evenodd"
            d="M797.941 631.452C802.39 648.059 792.096 665.246 774.948 669.841C771.784 670.689 768.608 671.049 765.504 670.968L759.553 675.766C757.649 677.301 754.799 676.355 754.162 673.976L752.532 667.892C744.545 664.124 738.262 657.124 735.841 648.092C731.392 631.485 741.686 614.298 758.834 609.703C775.982 605.108 793.491 614.846 797.941 631.452ZM752.039 650.099L757.743 635.372C758.345 633.817 760.153 633.031 761.727 633.639L769.875 636.784C770.825 637.151 771.925 636.845 772.548 636.039L779.019 627.674C780.072 626.311 782.25 627.441 781.625 629.026L775.599 644.307C774.99 645.852 773.189 646.63 771.622 646.025L763.447 642.869C762.501 642.503 761.406 642.805 760.781 643.604L754.644 651.45C753.588 652.799 751.427 651.678 752.039 650.099Z"
            fill="#534B53" />
        <rect x="824.857" y="563.024" width="120" height="120" rx="60"
            transform="rotate(-15 824.857 563.024)" fill="#151415" />
        <path
            d="M885.499 602.863L885.369 602.379C885.041 601.153 885.75 599.874 886.993 599.45L896.046 596.365L913.823 611.721L909.409 595.245L906.01 595.687L905.949 595.457C905.617 594.217 906.347 592.925 907.611 592.515L915.883 589.838L916.206 591.045C916.358 591.612 916.066 592.21 915.515 592.462L913.588 593.344L920.737 620.025L918.438 621.575C916.517 622.87 913.952 622.722 912.251 621.219L894.872 605.86L899.647 623.684L903.652 623.392L903.693 623.76C903.824 624.911 903.093 626.004 901.95 626.365L892.59 629.325C892.146 628.169 892.752 626.865 893.948 626.406L895.159 625.941L888.791 602.176L885.499 602.863Z"
            fill="#534B53" />
        <path fill-rule="evenodd" clip-rule="evenodd"
            d="M901.174 571.582L863.888 584.352C861.655 585.117 860.382 587.418 860.972 589.622L870.871 626.563C871.425 628.635 872.678 630.456 874.43 631.74L885.352 639.748C887.118 641.042 889.445 641.392 891.565 640.682L933.024 626.792C935.149 626.08 936.367 623.897 935.806 621.805L924.553 579.806C924.206 578.512 923.227 577.474 921.931 577.026L906.169 571.579C904.563 571.024 902.799 571.025 901.174 571.582ZM867.048 588.612C866.415 588.362 866.449 587.48 867.099 587.255L902.374 575.038C903.498 574.649 904.721 574.659 905.824 575.067L914.41 578.246C914.736 578.367 914.72 578.821 914.386 578.93L876.853 591.207C875.717 591.578 874.488 591.545 873.39 591.112L867.048 588.612ZM876.806 598.179C876.475 596.942 877.201 595.652 878.46 595.24L918.142 582.257C919.37 581.855 920.675 582.532 920.998 583.738L930.743 620.104C931.074 621.339 930.351 622.627 929.095 623.042L889.69 636.041C888.325 636.491 886.87 635.739 886.511 634.397L876.806 598.179Z"
            fill="#534B53" />
        <rect x="956.223" y="527.825" width="120" height="120" rx="60"
            transform="rotate(-15 956.223 527.825)" fill="#151415" />
        <path fill-rule="evenodd" clip-rule="evenodd"
            d="M1009.37 542.572C1012.79 541.656 1016.22 541.654 1019.39 542.41C1020.29 542.073 1021.21 541.776 1022.16 541.522C1038.08 537.255 1054.45 546.705 1058.72 562.628C1059.1 564.05 1059.37 565.476 1059.54 566.897C1061.85 569.133 1063.61 572.006 1064.5 575.341C1067.13 585.14 1061.31 595.212 1051.51 597.838C1048.18 598.731 1044.81 598.647 1041.72 597.761C1040.4 598.327 1039.03 598.804 1037.61 599.185C1021.69 603.452 1005.32 594.002 1001.05 578.079C1000.65 576.586 1000.37 575.09 1000.21 573.6C997.886 571.414 996.141 568.617 995.27 565.366C992.645 555.567 998.957 545.362 1009.37 542.572ZM1036.64 557.451C1037.41 554.075 1030.57 553.532 1025.88 554.788C1021.19 556.044 1015.73 560.675 1017.12 565.85C1018.51 571.025 1022.91 571.827 1027.31 572.628C1028.19 572.789 1029.16 572.877 1030.12 572.965C1033.02 573.229 1035.91 573.492 1036.51 575.71C1037.3 578.667 1034.37 580.244 1031.25 581.081C1030.13 581.381 1028.7 581.196 1027.28 581.013C1024.74 580.684 1022.25 580.361 1021.68 582.854C1020.91 586.229 1026.34 587.944 1032.64 586.256C1039.67 584.372 1044.34 579.95 1042.76 574.036C1041.27 568.492 1034.48 567.851 1030.09 567.437C1029.8 567.409 1029.52 567.383 1029.25 567.356C1024.94 566.924 1023.77 565.654 1023.37 564.176C1022.97 562.697 1024.14 560.8 1027.27 559.963C1028.31 559.684 1029.58 559.824 1030.85 559.965C1033.39 560.246 1035.94 560.527 1036.64 557.451Z"
            fill="#534B53" />
        <rect x="1087.59" y="492.625" width="120" height="120" rx="60"
            transform="rotate(-15 1087.59 492.625)" fill="#151415" />
        <path
            d="M1158.59 525.209L1144.2 510.587C1144.44 510.169 1144.76 509.853 1145.09 509.607C1142.46 511.327 1142.01 514.916 1142.01 514.916L1132.6 551.185C1132.61 552.24 1132.78 553.15 1133.02 553.926L1152.5 548.707L1158.59 525.209Z"
            fill="#534B53" />
        <path
            d="M1158.59 525.21L1175.62 542.513L1195.1 537.294C1194.92 536.501 1194.61 535.628 1194.09 534.708L1167.81 508.003C1167.81 508.003 1165.62 505.123 1162.49 504.946C1162.89 504.993 1163.33 505.108 1163.74 505.352L1158.59 525.21Z"
            fill="#534B53" />
        <path
            d="M1158.59 525.211L1163.74 505.354C1163.33 505.11 1162.89 504.995 1162.49 504.948C1162.02 504.924 1161.54 504.954 1161.04 505.061L1160.52 505.2L1146.91 508.846L1146.4 508.985C1145.91 509.138 1145.48 509.353 1145.09 509.609C1144.76 509.854 1144.44 510.172 1144.2 510.589L1158.59 525.211Z"
            fill="#3C363C" />
        <path
            d="M1152.5 548.707L1147.41 568.339C1147.41 568.339 1147.05 568.269 1146.53 568.063C1148.18 568.75 1149.57 568.617 1149.57 568.617L1187.5 558.454C1189.6 557.893 1189.82 556.977 1189.82 556.977C1189.82 556.972 1189.83 556.967 1189.83 556.962L1175.62 542.513L1152.5 548.707Z"
            fill="#534B53" />
        <path
            d="M1152.5 548.706L1133.03 553.926C1133.74 556.215 1135.11 557.299 1135.11 557.299L1136.18 558.374C1136.26 558.434 1136.3 558.468 1136.3 558.468L1138.64 560.84L1143.89 566.109C1144.06 566.333 1144.25 566.531 1144.43 566.717C1144.5 566.779 1144.57 566.848 1144.64 566.905C1144.66 566.923 1144.68 566.94 1144.7 566.958C1145.31 567.464 1145.94 567.814 1146.53 568.062C1147.06 568.271 1147.42 568.338 1147.42 568.338L1152.5 548.706Z"
            fill="#3C363C" />
        <path
            d="M1175.62 542.514L1195.1 537.294C1195.62 539.636 1194.98 541.258 1194.98 541.258L1194.58 542.725C1194.55 542.814 1194.53 542.865 1194.53 542.865L1193.69 546.09L1191.78 553.278C1191.74 553.558 1191.68 553.821 1191.61 554.076C1191.58 554.164 1191.56 554.257 1191.53 554.343C1191.52 554.368 1191.51 554.393 1191.5 554.418C1191.23 555.161 1190.86 555.777 1190.47 556.29C1190.12 556.733 1189.84 556.972 1189.84 556.972L1175.62 542.514Z"
            fill="#3C363C" />
        <rect x="1218.96" y="457.426" width="120" height="120" rx="60"
            transform="rotate(-15 1218.96 457.426)" fill="#151415" />
        <path fill-rule="evenodd" clip-rule="evenodd"
            d="M1262.77 512.75C1263.72 516.308 1265.87 519.232 1268.68 521.222L1268.68 521.223C1272.37 523.828 1277.19 524.832 1281.95 523.557C1290.16 521.356 1311.63 515.604 1317.2 514.092C1320.91 513.118 1323.62 510.147 1325.03 506.74L1324.96 506.722L1324.96 506.722L1325.03 506.74C1326.03 504.31 1326.29 501.566 1325.6 498.85C1325.59 498.8 1325.57 498.749 1325.56 498.698C1323.75 491.943 1316.71 487.951 1309.81 489.745C1308.22 486.888 1305.93 484.534 1303.22 482.835C1299.61 480.57 1295.25 479.469 1290.77 479.89C1289.65 479.995 1288.53 480.195 1287.4 480.496L1287.4 480.496C1286.35 480.777 1285.35 481.136 1284.39 481.564C1282.96 482.2 1281.63 482.989 1280.42 483.905C1277.06 486.459 1274.61 490 1273.43 493.958L1273.43 493.958C1273.14 494.044 1272.86 494.138 1272.59 494.239L1272.51 494.269L1272.51 494.268C1265.01 497.061 1260.7 505.023 1262.77 512.75C1262.77 512.75 1262.77 512.75 1262.77 512.75C1262.77 512.75 1262.77 512.75 1262.77 512.75Z"
            fill="#534B53" />
        <rect width="1300" height="640" fill="url(#paint0_radial_141_386)" />
    </g>
    <defs>
        <radialGradient id="paint0_radial_141_386" cx="0" cy="0" r="1"
            gradientUnits="userSpaceOnUse" gradientTransform="rotate(26.2114) scale(1449 2965.65)">
            <stop stop-color="#0F0D0F" />
            <stop offset="0.585819" stop-color="#0F0D0F" stop-opacity="0.825" />
            <stop offset="0.822874" stop-color="#0F0D0F" stop-opacity="0.507692" />
            <stop offset="1" stop-color="#0F0D0F" stop-opacity="0" />
        </radialGradient>
        <clipPath id="clip0_141_386">
            <rect width="1300" height="640" rx="8" fill="white" />
        </clipPath>
    </defs>
</svg>