<svg width="152" height="32" viewBox="0 0 152 32" fill="none" xmlns="http://www.w3.org/2000/svg">
<path d="M17.415 27.8C21.24 27.8 24.945 27.42 27.9249 26.655C24.9949 29.935 20.7299 32 15.985 32C10.905 32 6.37995 29.635 3.44995 25.945C7.46995 27.18 12.54 27.8 17.415 27.8Z" fill="#A732AA"/>
<path d="M16.065 4.225C11.075 4.285 6.51495 5.175 2.94995 6.72C5.84995 2.65 10.61 0 15.985 0C21.36 0 25.745 2.45 28.67 6.245C25.125 4.885 20.775 4.17 16.07 4.22L16.065 4.225Z" fill="#A732AA"/>
<path d="M25.06 18.625C29.025 19.13 30.315 19.825 30.69 20.1C30.525 20.4 29.955 20.9 28.755 21.4C25.47 22.76 19.405 23.335 13.3 22.87C7.26 22.405 2.255 21 0.54 19.29L0.365 19.465C0.16 18.55 0.035 17.6 0 16.63C2.65 17.415 6.92 17.625 13.305 17.87C17.395 18.03 21.62 18.19 25.055 18.625H25.06Z" fill="#A732AA"/>
<path d="M13.49 13.125C9.99498 12.99 5.13998 12.805 2.47998 12.345C5.43998 10.33 10.55 9.04001 16.125 8.97001C22.78 8.89501 28.65 10.57 31.435 13.355L31.72 13.07C31.86 13.83 31.95 14.61 31.975 15.405C30.22 14.62 28.235 14.3 27.13 14.125C23.225 13.5 18.275 13.305 13.49 13.125Z" fill="#A732AA"/>
<path d="M42.3451 12.525C41.2651 12.525 40.3901 13.085 40.3901 14.02C40.4101 14.98 41.6301 15.36 42.7451 15.58C45.3801 16.06 47.0551 16.76 47.0551 18.835C47.0551 20.91 44.9801 21.83 42.7201 21.83C40.0251 21.83 38.0901 20.47 37.9301 18.255L40.1051 18.115C40.3251 19.315 41.2451 20.07 42.7001 20.07C43.6601 20.07 44.8551 19.73 44.8551 18.735C44.8351 17.595 43.4951 17.455 42.3601 17.195C40.1051 16.715 38.1851 16.095 38.1851 14.08C38.1851 12.065 39.8601 10.765 42.4951 10.765C44.7901 10.765 46.5501 12.105 46.8901 14.22L44.7151 14.34C44.4951 13.2 43.4351 12.525 42.3401 12.525H42.3451Z" fill="#FCDDEC"/>
<path d="M47.7301 16.3C47.7301 12.925 49.7251 10.77 52.7801 10.77C55.8351 10.77 57.8101 12.925 57.8101 16.3C57.8101 19.675 55.8151 21.83 52.7801 21.83C49.7451 21.83 47.7301 19.675 47.7301 16.3ZM52.7801 19.995C54.5751 19.995 55.6151 18.615 55.6151 16.3C55.6151 13.985 54.5751 12.605 52.7801 12.605C50.9851 12.605 49.9251 13.985 49.9251 16.3C49.9251 18.615 50.9851 19.995 52.7801 19.995Z" fill="#FCDDEC"/>
<path d="M63.6451 12.605C61.8501 12.605 60.7901 13.985 60.7901 16.3C60.7901 18.615 61.8501 19.995 63.6451 19.995C64.9051 19.995 65.9401 19.175 66.1601 17.7L68.3751 17.82C68.0551 20.295 66.0801 21.835 63.6451 21.835C60.5701 21.835 58.5951 19.66 58.5951 16.305C58.5951 12.95 60.5701 10.775 63.6451 10.775C66.0001 10.775 68.0201 12.235 68.2951 14.61L66.1001 14.73C65.8801 13.39 64.8401 12.615 63.6451 12.615V12.605Z" fill="#FCDDEC"/>
<path d="M69.51 7.435H71.725V9.45H69.51V7.435ZM71.665 11.01V21.59H69.55V11.01H71.665Z" fill="#FCDDEC"/>
<path d="M77.6801 10.77C80.5551 10.77 82.1301 12.37 82.1301 15.265V19.2C82.1301 19.74 82.3701 19.94 82.7901 19.94H83.2101V21.595H82.5501C81.5901 21.615 80.2951 21.455 80.1951 19.96C79.7151 20.98 78.5401 21.835 76.7801 21.835C74.6451 21.835 72.9651 20.695 72.9651 18.82C72.9651 16.705 74.5401 16.085 76.9801 15.625L80.0151 15.025C79.9951 13.33 79.2151 12.49 77.6801 12.49C76.4401 12.49 75.6251 13.13 75.3451 14.325L73.1501 14.185C73.5701 12.05 75.2451 10.77 77.6801 10.77ZM77.2401 20.195C78.8151 20.175 80.0551 19.055 80.0551 16.78V16.64L77.8001 17.04C76.3401 17.3 75.1651 17.44 75.1651 18.775C75.1651 19.555 75.8451 20.195 77.2401 20.195Z" fill="#FCDDEC"/>
<path d="M86.285 7.41501V19.135C86.285 19.615 86.545 19.855 87.005 19.855H87.865V21.59H86.545C85.125 21.59 84.17 20.67 84.17 19.235V7.41501H86.285Z" fill="#FCDDEC"/>
<path d="M93.175 12.605C91.38 12.605 90.32 13.985 90.32 16.3C90.32 18.615 91.38 19.995 93.175 19.995C94.435 19.995 95.47 19.175 95.69 17.7L97.905 17.82C97.585 20.295 95.61 21.835 93.175 21.835C90.1 21.835 88.125 19.66 88.125 16.305C88.125 12.95 90.1 10.775 93.175 10.775C95.53 10.775 97.55 12.235 97.825 14.61L95.63 14.73C95.41 13.39 94.37 12.615 93.175 12.615V12.605Z" fill="#FCDDEC"/>
<path d="M103.29 10.77C106.165 10.77 107.74 12.37 107.74 15.265V19.2C107.74 19.74 107.98 19.94 108.4 19.94H108.82V21.595H108.16C107.2 21.615 105.905 21.455 105.805 19.96C105.325 20.98 104.15 21.835 102.39 21.835C100.255 21.835 98.5751 20.695 98.5751 18.82C98.5751 16.705 100.15 16.085 102.59 15.625L105.625 15.025C105.605 13.33 104.825 12.49 103.29 12.49C102.05 12.49 101.235 13.13 100.955 14.325L98.7601 14.185C99.1801 12.05 100.855 10.77 103.29 10.77ZM102.85 20.195C104.425 20.175 105.665 19.055 105.665 16.78V16.64L103.41 17.04C101.95 17.3 100.775 17.44 100.775 18.775C100.775 19.555 101.455 20.195 102.85 20.195Z" fill="#FCDDEC"/>
<path d="M109.875 11.01H111.85L111.91 12.585C112.49 11.405 113.605 10.77 115.125 10.77C118.22 10.77 119.675 13.325 119.675 16.3C119.675 19.275 118.215 21.83 115.125 21.83C113.685 21.83 112.59 21.23 111.99 20.115V24.59H109.875V11.015V11.01ZM114.625 20.015C116.62 20.015 117.46 18.24 117.46 16.3C117.46 14.36 116.6 12.585 114.625 12.585C112.65 12.585 111.81 14.4 111.81 16.3C111.81 18.2 112.67 20.015 114.625 20.015Z" fill="#FCDDEC"/>
<path d="M123.89 8.61002V11.005H126.685V12.72H123.89V18.55C123.89 19.41 124.31 19.85 125.13 19.85H126.665V21.585H124.91C122.875 21.585 121.775 20.525 121.775 18.55V12.72H120.16V11.005H121.775V8.61002H123.89Z" fill="#FCDDEC"/>
<path d="M127.625 7.435H129.84V9.45H127.625V7.435ZM129.78 11.01V21.59H127.665V11.01H129.78Z" fill="#FCDDEC"/>
<path d="M131.08 16.3C131.08 12.925 133.075 10.77 136.13 10.77C139.185 10.77 141.16 12.925 141.16 16.3C141.16 19.675 139.165 21.83 136.13 21.83C133.095 21.83 131.08 19.675 131.08 16.3ZM136.13 19.995C137.925 19.995 138.965 18.615 138.965 16.3C138.965 13.985 137.925 12.605 136.13 12.605C134.335 12.605 133.275 13.985 133.275 16.3C133.275 18.615 134.335 19.995 136.13 19.995Z" fill="#FCDDEC"/>
<path d="M144.44 11.01L144.5 12.785C145.04 11.37 146.275 10.77 147.715 10.77C150.09 10.77 151.31 12.465 151.31 14.785V21.595H149.195V15.445C149.195 13.57 148.615 12.55 147.14 12.55C145.665 12.55 144.625 13.57 144.625 15.445V21.595H142.51V11.015H144.445L144.44 11.01Z" fill="#FCDDEC"/>
</svg>
