<svg width="295" height="204" viewBox="0 0 295 204" fill="none" xmlns="http://www.w3.org/2000/svg">
    <path fill-rule="evenodd" clip-rule="evenodd"
        d="M73.592 142.12H181.336C181.946 142.12 182.54 142.054 183.112 141.93C183.684 142.054 184.278 142.12 184.888 142.12H246.456C251.033 142.12 254.744 138.422 254.744 133.86C254.744 129.298 251.033 125.6 246.456 125.6H239.352C234.775 125.6 231.064 121.902 231.064 117.34C231.064 112.778 234.775 109.08 239.352 109.08H261.848C266.425 109.08 270.136 105.382 270.136 100.82C270.136 96.2581 266.425 92.56 261.848 92.56H235.8C240.377 92.56 244.088 88.8619 244.088 84.3C244.088 79.7381 240.377 76.04 235.8 76.04H160.024C164.601 76.04 168.312 72.3419 168.312 67.78C168.312 63.2181 164.601 59.52 160.024 59.52H92.536C87.9586 59.52 84.248 63.2181 84.248 67.78C84.248 72.3419 87.9586 76.04 92.536 76.04H45.176C40.5987 76.04 36.888 79.7381 36.888 84.3C36.888 88.8619 40.5987 92.56 45.176 92.56H74.776C79.3533 92.56 83.064 96.2581 83.064 100.82C83.064 105.382 79.3533 109.08 74.776 109.08H27.416C22.8387 109.08 19.128 112.778 19.128 117.34C19.128 121.902 22.8387 125.6 27.416 125.6H73.592C69.0146 125.6 65.304 129.298 65.304 133.86C65.304 138.422 69.0146 142.12 73.592 142.12ZM266.584 142.12C271.161 142.12 274.872 138.422 274.872 133.86C274.872 129.298 271.161 125.6 266.584 125.6C262.007 125.6 258.296 129.298 258.296 133.86C258.296 138.422 262.007 142.12 266.584 142.12Z"
        fill="#383238" />
    <path fill-rule="evenodd" clip-rule="evenodd"
        d="M132.932 116.522C132.84 117.175 132.792 117.842 132.792 118.52C132.792 126.34 139.153 132.68 147 132.68C154.847 132.68 161.208 126.34 161.208 118.52C161.208 117.842 161.16 117.175 161.068 116.522H195.544V148.02C195.544 149.975 193.954 151.56 191.992 151.56H102.008C100.046 151.56 98.456 149.975 98.456 148.02V116.522H132.932Z"
        fill="#080708" />
    <path fill-rule="evenodd" clip-rule="evenodd"
        d="M162.392 116.16C162.392 124.632 155.501 131.5 147 131.5C138.499 131.5 131.608 124.632 131.608 116.16C131.608 115.886 131.615 115.613 131.63 115.342H98.456L109.776 81.9859C110.264 80.5479 111.617 79.58 113.14 79.58H180.86C182.383 79.58 183.736 80.5479 184.224 81.9859L195.544 115.342H162.37C162.385 115.613 162.392 115.886 162.392 116.16Z"
        fill="#080708" />
    <path fill-rule="evenodd" clip-rule="evenodd"
        d="M160.14 117.286C160.14 123.833 154.257 130.32 147 130.32C139.743 130.32 133.86 123.833 133.86 117.286C133.86 117.074 133.867 115.683 133.879 115.474H109.112L118.775 92.0591C119.192 90.9479 120.347 90.2 121.647 90.2H172.353C173.653 90.2 174.808 90.9479 175.225 92.0591L184.888 115.474H160.121C160.133 115.683 160.14 117.074 160.14 117.286Z"
        fill="#383238" />
    <path fill-rule="evenodd" clip-rule="evenodd"
        d="M99.936 115.584V146.84C99.936 147.98 100.864 148.905 102.008 148.905H191.992C193.136 148.905 194.064 147.98 194.064 146.84V115.584L182.822 82.4584C182.538 81.6196 181.748 81.055 180.86 81.055H113.14C112.252 81.055 111.462 81.6196 111.178 82.4584L99.936 115.584Z"
        stroke="#A732AA" stroke-width="2.5" />
    <path
        d="M115.032 114.98C119.693 114.98 124.723 114.98 130.122 114.98C132.343 114.98 132.343 116.536 132.343 117.34C132.343 125.16 138.851 131.5 146.878 131.5C154.906 131.5 161.413 125.16 161.413 117.34C161.413 116.536 161.413 114.98 163.635 114.98H193.176M106.239 114.98H109.112H106.239Z"
        stroke="#A732AA" stroke-width="2.5" stroke-linecap="round" stroke-linejoin="round" />
    <path
        d="M176.718 52.7972L163.576 67.4919M145.934 47.72V67.4919V47.72ZM115.032 52.7972L128.174 67.4919L115.032 52.7972Z"
        stroke="#A732AA" stroke-width="2.5" stroke-linecap="round" stroke-linejoin="round" />
</svg>
    